<svg width="13" height="14" viewBox="0 0 13 14" fill="none" xmlns="http://www.w3.org/2000/svg">
<path fill-rule="evenodd" clip-rule="evenodd" d="M12.728 7.25628C13.0907 7.59799 13.0907 8.15201 12.728 8.49372L7.1566 13.7437C6.79397 14.0854 6.20603 14.0854 5.8434 13.7437L0.271973 8.49372C-0.0906568 8.15201 -0.0906568 7.59799 0.271973 7.25628C0.634602 6.91457 1.22254 6.91457 1.58517 7.25628L5.57143 11.0126L5.57143 0.875001C5.57143 0.391751 5.98716 -3.40593e-07 6.5 -3.85426e-07C7.01283 -4.3026e-07 7.42857 0.391751 7.42857 0.875L7.42857 11.0126L11.4148 7.25628C11.7775 6.91457 12.3654 6.91457 12.728 7.25628Z" fill="white"/>
</svg>
