<svg width="38" height="38" viewBox="0 0 38 38" fill="none" xmlns="http://www.w3.org/2000/svg">
<path d="M5.93718 1.1875C5.93718 0.872555 6.06229 0.57051 6.28499 0.347811C6.50769 0.125111 6.80974 0 7.12468 0L30.8747 0C31.1896 0 31.4917 0.125111 31.7144 0.347811C31.9371 0.57051 32.0622 0.872555 32.0622 1.1875C32.0622 2.46525 32.0337 3.68125 31.9814 4.8355C32.9199 4.9909 33.8177 5.33263 34.622 5.84055C35.4262 6.34847 36.1206 7.01229 36.6642 7.79287C37.2079 8.57345 37.5897 9.45497 37.7872 10.3855C37.9847 11.316 37.9939 12.2766 37.8142 13.2107C37.6345 14.1448 37.2696 15.0334 36.741 15.8242C36.2124 16.6151 35.5308 17.292 34.7364 17.8152C33.9419 18.3384 33.0508 18.6972 32.1155 18.8705C31.1802 19.0438 30.2197 19.0281 29.2906 18.8243C27.4143 23.2536 24.8303 25.4196 22.5622 25.9754V31.1362L25.9466 31.9817C26.4073 32.0957 26.8419 32.3024 27.2219 32.5874L31.5872 35.8625C31.7866 36.012 31.9339 36.2205 32.0082 36.4584C32.0825 36.6963 32.0801 36.9516 32.0012 37.188C31.9224 37.4245 31.7712 37.6301 31.569 37.7759C31.3668 37.9216 31.1239 38 30.8747 38H7.12468C6.87545 38 6.63253 37.9216 6.43034 37.7759C6.22815 37.6301 6.07693 37.4245 5.99812 37.188C5.9193 36.9516 5.91688 36.6963 5.9912 36.4584C6.06551 36.2205 6.21279 36.012 6.41218 35.8625L10.7774 32.5874C11.1574 32.3024 11.5921 32.0957 12.0528 31.9817L15.4372 31.1362V25.9754C13.1691 25.4196 10.5851 23.2536 8.70881 18.8219C7.7792 19.0268 6.81795 19.0434 5.88182 18.8707C4.9457 18.6979 4.05368 18.3393 3.25845 17.8161C2.46322 17.2929 1.7809 16.6156 1.2518 15.8242C0.722688 15.0329 0.35752 14.1435 0.177856 13.2087C-0.00180747 12.2739 0.00767643 11.3125 0.205748 10.3814C0.403819 9.45035 0.786462 8.56838 1.33108 7.78764C1.87569 7.00689 2.57124 6.34319 3.37664 5.83574C4.18203 5.32829 5.08095 4.98737 6.02031 4.83313C5.96439 3.61872 5.93668 2.40319 5.93718 1.1875ZM6.17231 7.22C4.933 7.44676 3.83453 8.15655 3.11855 9.19321C2.40257 10.2299 2.12773 11.5085 2.35449 12.7478C2.58125 13.9871 3.29104 15.0856 4.3277 15.8016C5.36437 16.5175 6.643 16.7924 7.88231 16.5656C7.09143 14.0719 6.48581 10.9939 6.17231 7.22ZM30.1194 16.5656C31.3587 16.7924 32.6374 16.5175 33.674 15.8016C34.7107 15.0856 35.4205 13.9871 35.6472 12.7478C35.874 11.5085 35.5992 10.2299 34.8832 9.19321C34.1672 8.15655 33.0687 7.44676 31.8294 7.22C31.5136 10.9963 30.9079 14.0719 30.1194 16.5656Z" fill="#E2FE53"/>
</svg>
