<svg width="88" height="74" viewBox="0 0 88 74" fill="none" xmlns="http://www.w3.org/2000/svg">
<path d="M2.92139 34.0242V34.7804" stroke="#D2D8DF" stroke-width="0.857136" stroke-linecap="round"/>
<path d="M1.22327 34.4338L1.84125 35.07" stroke="#D2D8DF" stroke-width="0.857136" stroke-linecap="round"/>
<path d="M0.500488 36.1272H1.37431" stroke="#D2D8DF" stroke-width="0.857136" stroke-linecap="round"/>
<path d="M1.15247 37.8508L1.77045 37.2146" stroke="#D2D8DF" stroke-width="0.857136" stroke-linecap="round"/>
<path d="M2.92139 38.0575V37.3013" stroke="#D2D8DF" stroke-width="0.857136" stroke-linecap="round"/>
<path d="M4.18228 37.553L3.6781 37.0488" stroke="#D2D8DF" stroke-width="0.857136" stroke-linecap="round"/>
<path d="M5.1906 36.293H4.43433" stroke="#D2D8DF" stroke-width="0.857136" stroke-linecap="round"/>
<path d="M4.68619 34.5281L4.18201 35.0323" stroke="#D2D8DF" stroke-width="0.857136" stroke-linecap="round"/>
<path d="M43.5081 1V1.50418" stroke="#D2D8DF" stroke-width="0.857136" stroke-linecap="round"/>
<path d="M41.9956 2.5127H42.4998" stroke="#D2D8DF" stroke-width="0.857136" stroke-linecap="round"/>
<path d="M43.5081 4.02518V3.521" stroke="#D2D8DF" stroke-width="0.857136" stroke-linecap="round"/>
<path d="M44.7686 2.5127H44.2644" stroke="#D2D8DF" stroke-width="0.857136" stroke-linecap="round"/>
<path d="M5.26904 21V21.7563" stroke="#D2D8DF" stroke-width="0.857136" stroke-linecap="round"/>
<path d="M3 23.269H3.75627" stroke="#D2D8DF" stroke-width="0.857136" stroke-linecap="round"/>
<path d="M5.26904 25.2856V24.5293" stroke="#D2D8DF" stroke-width="0.857136" stroke-linecap="round"/>
<path d="M7.28557 23.269H6.5293" stroke="#D2D8DF" stroke-width="0.857136" stroke-linecap="round"/>
<path d="M74.0913 52C74.6937 52 75.1823 52.4887 75.1823 53.0913C75.1823 53.6942 74.6937 54.1827 74.0913 54.1827C73.4888 54.1827 73.0002 53.6942 73.0002 53.0913" stroke="#D2D8DF" stroke-width="0.857136" stroke-linecap="round"/>
<path d="M73.5099 64.0101C73.6448 64.9512 72.9916 65.8233 72.051 65.9581C71.1102 66.0928 70.2383 65.4395 70.1034 64.4986C69.9686 63.5578 70.6218 62.6856 71.5624 62.5508" stroke="#D2D8DF" stroke-width="0.857136" stroke-linecap="round"/>
<path fill-rule="evenodd" clip-rule="evenodd" d="M84.0002 30.8468C84.6481 30.6447 85.6411 29.8524 85.8709 29C86.0794 29.7535 86.9532 30.6447 87.7417 30.7121C86.8541 31.0264 86.0056 31.96 85.8709 32.6934C85.7794 31.9458 84.6057 30.9558 84.0002 30.8468Z" fill="#EBECEE"/>
<path fill-rule="evenodd" clip-rule="evenodd" d="M7.02441 49.3271C7.34843 49.2261 7.84473 48.83 7.95966 48.4038C8.06388 48.7804 8.50069 49.2261 8.89491 49.2599C8.45125 49.4168 8.02707 49.8837 7.95966 50.2504C7.91386 49.8766 7.32703 49.3815 7.02441 49.3271Z" fill="#EBECEE"/>
<path fill-rule="evenodd" clip-rule="evenodd" d="M13.0369 14.2593C13.0369 14.7268 12.658 15.1055 12.1908 15.1055C11.7234 15.1055 11.3448 14.7268 11.3448 14.2593C11.3448 13.792 11.7234 13.4131 12.1908 13.4131C12.658 13.4131 13.0369 13.792 13.0369 14.2593Z" fill="#D1D8DF"/>
<path fill-rule="evenodd" clip-rule="evenodd" d="M62.9968 67.3902C62.9968 68.1713 62.3635 68.8046 61.5828 68.8046C60.8016 68.8046 60.1686 68.1713 60.1686 67.3902C60.1686 66.6091 60.8016 65.9758 61.5828 65.9758C62.3635 65.9758 62.9968 66.6091 62.9968 67.3902Z" fill="#EBECEE"/>
<path fill-rule="evenodd" clip-rule="evenodd" d="M75.2433 16.1219C75.2433 16.7417 74.7413 17.2439 74.1219 17.2439C73.5023 17.2439 73.0002 16.7417 73.0002 16.1219C73.0002 15.5022 73.5023 15 74.1219 15C74.7413 15 75.2433 15.5022 75.2433 16.1219Z" fill="#EBECEE"/>
<path fill-rule="evenodd" clip-rule="evenodd" d="M28.8477 65.0986C28.8477 65.4893 28.5312 65.8059 28.1406 65.8059C27.7502 65.8059 27.4337 65.4893 27.4337 65.0986C27.4337 64.708 27.7502 64.3914 28.1406 64.3914C28.5312 64.3914 28.8477 64.708 28.8477 65.0986Z" stroke="#D2D8DF" stroke-width="0.857136" stroke-linecap="round"/>
<path fill-rule="evenodd" clip-rule="evenodd" d="M28.4272 8.82303C28.4272 9.29056 28.0484 9.66925 27.5812 9.66925C27.114 9.66925 26.7352 9.29056 26.7352 8.82303C26.7352 8.35571 27.114 7.97681 27.5812 7.97681C28.0484 7.97681 28.4272 8.35571 28.4272 8.82303Z" stroke="#D2D8DF" stroke-width="0.857136" stroke-linecap="round"/>
<path fill-rule="evenodd" clip-rule="evenodd" d="M50.0072 72.9307C49.4666 73.1364 48.8616 72.8647 48.6559 72.3242C48.4502 71.7835 48.7216 71.1781 49.2624 70.9726C49.8028 70.7669 50.4078 71.0383 50.6135 71.579C50.8194 72.1198 50.5478 72.725 50.0072 72.9307Z" stroke="#D2D8DF" stroke-width="0.857136" stroke-linecap="round"/>
<path fill-rule="evenodd" clip-rule="evenodd" d="M33 59.6722H39.4066L36.0507 70L51 55.3937H41.9997L47.0338 34L33 59.6722Z" fill="url(#paint0_linear_1003_2197)"/>
<path fill-rule="evenodd" clip-rule="evenodd" d="M70.1714 27.7853C68.6529 26.7064 66.88 25.9627 64.9588 25.666C63.9078 16.4844 56.1134 9.35376 46.6505 9.35376C40.7536 9.35376 35.5047 12.1243 32.1305 16.4346C30.9465 16.038 29.6826 15.8216 28.3648 15.8216C22.3144 15.8216 17.3249 20.357 16.6047 26.2131C11.5976 27.7654 7.96191 32.4334 7.96191 37.9495C7.96191 44.7153 13.4305 50.2022 20.1899 50.234C20.538 50.2809 20.8918 50.3082 21.2528 50.3082H61.4294C62.1712 50.4472 62.9322 50.523 63.7141 50.523C70.5005 50.523 75.9999 45.0226 75.9999 38.2372C75.9999 33.8206 73.669 29.9503 70.1714 27.7853Z" fill="#EBEEF8"/>
<path fill-rule="evenodd" clip-rule="evenodd" d="M36.0175 20.8264C34.5957 20.2495 33.0135 19.9255 31.3457 19.9255C25.1693 19.9255 20.1642 24.3342 20.1642 29.7716C20.1642 30.3216 20.2166 30.86 20.3155 31.3845C25.1176 24.6008 28.4266 21.9068 36.0175 20.8264Z" fill="#E0E3EF"/>
<defs>
<linearGradient id="paint0_linear_1003_2197" x1="42" y1="16" x2="13.2" y2="30.4" gradientUnits="userSpaceOnUse">
<stop stop-color="#FF8960"/>
<stop offset="1" stop-color="#FF62A5"/>
</linearGradient>
</defs>
</svg>
