<svg width="32" height="32" viewBox="0 0 32 32" fill="none" xmlns="http://www.w3.org/2000/svg">
<rect width="32" height="32" rx="16" fill="#F4F7FF"/>
<path d="M10.8956 21.1048C11.0479 21.2571 11.2003 21.3333 11.4289 21.3333C11.6575 21.3333 11.8098 21.2571 11.9622 21.1048L16.0003 17.0667L20.0384 21.1048C20.1908 21.2571 20.4194 21.3333 20.5718 21.3333C20.7241 21.3333 20.9527 21.2571 21.1051 21.1048C21.4098 20.8 21.4098 20.3429 21.1051 20.0381L17.067 16L21.1051 11.9619C21.4098 11.6571 21.4098 11.2 21.1051 10.8952C20.8003 10.5905 20.3432 10.5905 20.0384 10.8952L16.0003 14.9333L11.9622 10.8952C11.6575 10.5905 11.2003 10.5905 10.8956 10.8952C10.5908 11.2 10.5908 11.6571 10.8956 11.9619L14.9337 16L10.8956 20.0381C10.5908 20.3429 10.5908 20.8 10.8956 21.1048Z" fill="#C6CAD9"/>
</svg>
