<svg width="24" height="24" viewBox="0 0 24 24" fill="none" xmlns="http://www.w3.org/2000/svg">
<path d="M7.42857 16H5.71429C5.25963 16 4.82359 15.8194 4.5021 15.4979C4.18061 15.1764 4 14.7404 4 14.2857V5.71429C4 5.25963 4.18061 4.82359 4.5021 4.5021C4.82359 4.18061 5.25963 4 5.71429 4H14.2857C14.7404 4 15.1764 4.18061 15.4979 4.5021C15.8194 4.82359 16 5.25963 16 5.71429V7.42857" stroke="#AAB3FF" stroke-width="1.5" stroke-linecap="round" stroke-linejoin="round"/>
<path d="M19.0529 8H8.94714C8.42405 8 8 8.42405 8 8.94714V19.0529C8 19.576 8.42405 20 8.94714 20H19.0529C19.576 20 20 19.576 20 19.0529V8.94714C20 8.42405 19.576 8 19.0529 8Z" stroke="#AAB3FF" stroke-width="1.5" stroke-linecap="round" stroke-linejoin="round"/>
</svg>
