<svg width="28" height="22" viewBox="0 0 28 22" fill="none" xmlns="http://www.w3.org/2000/svg">
<path d="M23.6151 2.54997C21.8467 1.73854 19.9503 1.14071 17.9676 0.798311C17.9314 0.791703 17.8954 0.808217 17.8768 0.841247C17.6329 1.27502 17.3627 1.84092 17.1736 2.28572C15.041 1.96644 12.9193 1.96644 10.8304 2.28572C10.6412 1.83104 10.3612 1.27502 10.1163 0.841247C10.0977 0.809319 10.0616 0.792805 10.0255 0.798311C8.04379 1.13962 6.14742 1.73744 4.3779 2.54997C4.36258 2.55657 4.34945 2.56759 4.34074 2.58189C0.743718 7.95576 -0.241656 13.1975 0.241735 18.3743C0.243922 18.3997 0.25814 18.4239 0.277826 18.4393C2.65104 20.1821 4.94989 21.2402 7.20606 21.9415C7.24217 21.9525 7.28043 21.9393 7.30341 21.9096C7.83711 21.1807 8.31285 20.4123 8.72075 19.6041C8.74483 19.5568 8.72185 19.5006 8.67265 19.4819C7.91804 19.1957 7.1995 18.8466 6.50831 18.4503C6.45364 18.4184 6.44927 18.3402 6.49956 18.3027C6.64501 18.1938 6.7905 18.0804 6.92939 17.9659C6.95451 17.9449 6.98953 17.9405 7.01907 17.9537C11.5599 20.0269 16.4758 20.0269 20.963 17.9537C20.9926 17.9394 21.0276 17.9439 21.0538 17.9648C21.1927 18.0793 21.3382 18.1938 21.4847 18.3027C21.535 18.3402 21.5317 18.4184 21.4771 18.4503C20.7859 18.8543 20.0673 19.1957 19.3116 19.4808C19.2624 19.4995 19.2405 19.5568 19.2646 19.6041C19.6813 20.4111 20.157 21.1796 20.6809 21.9085C20.7028 21.9393 20.7421 21.9525 20.7782 21.9415C23.0453 21.2402 25.3442 20.1821 27.7174 18.4393C27.7382 18.4239 27.7513 18.4008 27.7535 18.3754C28.332 12.3905 26.7845 7.1917 23.6512 2.58299C23.6435 2.56759 23.6304 2.55657 23.6151 2.54997ZM9.39885 15.2222C8.03176 15.2222 6.90531 13.9671 6.90531 12.4257C6.90531 10.8844 8.00991 9.62927 9.39885 9.62927C10.7987 9.62927 11.9142 10.8954 11.8923 12.4257C11.8923 13.9671 10.7877 15.2222 9.39885 15.2222ZM18.6183 15.2222C17.2512 15.2222 16.1248 13.9671 16.1248 12.4257C16.1248 10.8844 17.2293 9.62927 18.6183 9.62927C20.0181 9.62927 21.1336 10.8954 21.1118 12.4257C21.1118 13.9671 20.0181 15.2222 18.6183 15.2222Z" fill="#9A9EAE"/>
</svg>
