<svg width="24" height="24" viewBox="0 0 24 24" fill="none" xmlns="http://www.w3.org/2000/svg">
<path d="M12 0C8.81714 0 5.76524 1.26429 3.51476 3.51476C1.26429 5.76524 0 8.81762 0 12C0 15.1824 1.26429 18.2348 3.51476 20.4852C5.76524 22.7357 8.81762 24 12 24C15.1824 24 18.2348 22.7357 20.4852 20.4852C22.7357 18.2348 24 15.1824 24 12C24 9.89381 23.4452 7.82429 22.3924 6C21.339 4.17571 19.8243 2.66095 18 1.60762C16.1757 0.554762 14.1062 0 12 0ZM14.6962 22.0424C15.5867 20.6238 16.2776 18.5195 16.6429 16.0371H21.5843C20.9667 17.4952 20.0257 18.7933 18.8324 19.8338C17.639 20.8743 16.2248 21.6295 14.6962 22.0429V22.0424ZM2.42952 16.0371H7.35762C7.72286 18.52 8.42429 20.6238 9.30429 22.0424C7.77619 21.629 6.3619 20.8738 5.1681 19.8333C3.97476 18.7929 3.03381 17.4948 2.41619 16.0371H2.42952ZM9.31762 1.95714C8.51762 3.23714 7.87238 5.07429 7.48857 7.24524H2.75476C3.41952 5.95762 4.34571 4.82238 5.47286 3.91238C6.60048 3.0019 7.90524 2.33619 9.30381 1.95762H9.31714L9.31762 1.95714ZM21.2457 7.24476H16.5338C16.15 5.07381 15.5071 3.24476 14.7048 1.95667C16.1019 2.33619 17.4052 3.00238 18.5314 3.91286C19.6576 4.82333 20.5819 5.9581 21.2462 7.24476H21.2457ZM12.0005 22.4C11.5338 22.4 10.7071 21.6 9.99524 19.8771C9.51143 18.6405 9.17143 17.3519 8.9819 16.0371H15.019C14.8295 17.3519 14.4895 18.64 14.0057 19.8771C13.2938 21.6 12.4671 22.3995 12.0005 22.3995V22.4ZM12.0005 1.6C12.4671 1.6 13.2938 2.4 14.0057 4.12286C14.4052 5.13191 14.7038 6.17762 14.8962 7.24571H9.10429C9.29714 6.17762 9.59524 5.13191 9.99476 4.12286C10.7067 2.4 11.5333 1.60048 12 1.60048L12.0005 1.6ZM8.67238 12C8.67143 10.9457 8.73381 9.89238 8.85905 8.84524H15.1419C15.2667 9.8919 15.329 10.9457 15.3286 12C15.3286 12.8238 15.2886 13.6429 15.2167 14.4371H8.78429C8.71238 13.6424 8.67238 12.8238 8.67238 12ZM7.17381 14.4371H1.89095C1.44286 12.5876 1.5119 10.65 2.09095 8.83714H7.24571C7.12952 9.88714 7.07143 10.9433 7.07238 11.9995C7.07238 12.8343 7.10714 13.65 7.17381 14.4367V14.4371ZM16.7552 8.83714H21.91C22.489 10.65 22.5581 12.5876 22.11 14.4371H16.8271C16.8938 13.6371 16.9286 12.8371 16.9286 12C16.929 10.9462 16.8714 9.89286 16.7552 8.84524V8.83714Z" fill="#15151B"/>
</svg>
