<svg width="200" height="41" viewBox="0 0 200 41" fill="none" xmlns="http://www.w3.org/2000/svg">
<g clip-path="url(#clip0_131_4296)">
<path d="M7.22456 14.2677C11.1645 14.2677 14.3584 11.0738 14.3584 7.13386C14.3584 3.19394 11.1645 0 7.22456 0C3.28464 0 0.0906982 3.19394 0.0906982 7.13386C0.0906982 11.0738 3.28464 14.2677 7.22456 14.2677Z" fill="#CFD5DF"/>
<path d="M26.4532 14.2255V15.9526H27.3918C28.4197 14.6666 30.0389 13.7514 32.6859 13.7514C37.689 13.7514 40.7021 17.9754 40.7021 23.6778C40.7021 29.3802 37.6702 33.6042 32.7047 33.6042C30.0952 33.6042 28.5886 32.7219 27.5936 31.3984H26.655V40.48H21.4923V14.2255H26.4532ZM26.4532 23.6778C26.4532 26.6534 27.8612 29.338 31.0526 29.338C34.1408 29.338 35.5723 26.8036 35.5723 23.6778C35.5723 20.5521 34.1408 18.0458 31.0526 18.0458C27.8518 18.0505 26.4532 20.6976 26.4532 23.6778ZM48.8497 6.39697V33.149H43.6871V6.39697H48.8497ZM64.4973 31.5063H63.5586C62.4182 32.8298 60.7661 33.6042 58.2646 33.6042C53.9983 33.6042 51.5719 30.6615 51.5719 27.3152C51.5719 24.3771 53.6698 21.0308 59.2549 21.0308H64.2955V20.5615C64.2955 18.6137 63.1926 17.6187 60.9492 17.6187C58.8888 17.6187 57.8985 18.3556 57.7483 19.6416H52.5997C52.7124 15.9995 56.0962 13.7608 60.6535 13.7608C65.7645 13.7608 69.2188 15.7789 69.2188 20.8524V33.1255H64.4973V31.5063ZM64.2767 25.5505V24.3771H60.2311C58.0252 24.3771 56.7017 25.1844 56.7017 26.9115C56.7017 28.6387 57.9501 29.521 60.048 29.521C62.5308 29.521 64.258 27.9065 64.258 25.5505H64.2767ZM83.2378 19.4116C82.9797 18.1256 81.8298 17.722 80.1871 17.722C78.5445 17.722 77.4274 18.1913 77.4274 19.3365C77.4274 20.369 78.1643 20.6225 79.4503 20.8806L82.867 21.3969C86.4339 21.946 88.8979 23.6778 88.8979 27.4654C88.8979 30.624 86.082 33.6042 80.5157 33.6042C74.7804 33.6042 72.0207 31.1027 71.5983 27.1697H76.7094C76.9675 28.8968 78.291 29.6337 80.464 29.6337C82.5244 29.6337 83.7494 28.9344 83.7494 27.5733C83.7494 26.2873 82.9046 25.8086 81.0319 25.4754L77.3524 24.8887C74.3768 24.3396 72.2789 22.9034 72.2789 19.6697C72.2789 16.436 74.7429 13.7514 80.3326 13.7514C85.0729 13.7514 87.9405 16.0277 88.3488 19.4116H83.2378ZM119.789 21.2138V33.1255H114.627V22.2041C114.627 19.7073 113.815 18.3087 111.759 18.3087C109.413 18.3087 108.3 20.1109 108.3 22.5749V33.1255H103.138V22.2041C103.138 19.7401 102.326 18.3087 100.27 18.3087C97.8059 18.3087 96.7734 20.4394 96.7734 22.9785V33.1255H91.6107V14.2255H96.5715V15.9526H97.5102C98.4489 14.4836 100.012 13.7514 102.204 13.7514C104.395 13.7514 106.024 14.4836 107.019 15.9526H107.958C109.056 14.4836 110.774 13.7514 113.12 13.7514C117.729 13.7514 119.789 16.6519 119.789 21.2138ZM135.263 31.5063H134.325C133.189 32.8298 131.532 33.6042 129.031 33.6042C124.769 33.6042 122.338 30.6615 122.338 27.3152C122.338 24.3771 124.436 21.0308 130.026 21.0308H135.062V20.5615C135.062 18.6137 133.959 17.6187 131.715 17.6187C129.655 17.6187 128.665 18.3556 128.519 19.6416H123.389C123.497 15.9995 126.881 13.7608 131.438 13.7608C136.549 13.7608 140.008 15.7789 140.008 20.8524V33.1255H135.263V31.5063ZM135.043 25.5505V24.3771H130.997C128.791 24.3771 127.468 25.1844 127.468 26.9115C127.468 28.6387 128.721 29.521 130.814 29.521C133.316 29.521 135.043 27.9065 135.043 25.5505ZM149.32 31.0651H148.588V40.48H146.269V14.7417H148.508V16.8021H149.245C150.273 15.5161 152.15 14.263 155.201 14.263C160.363 14.263 163.4 18.487 163.4 23.9313C163.4 29.3755 160.349 33.6042 155.201 33.6042C152.155 33.6042 150.352 32.3887 149.32 31.0651ZM148.588 23.9313C148.588 27.8314 150.39 31.5439 154.91 31.5439C158.918 31.5439 161.086 28.4556 161.086 23.9313C161.086 19.4069 158.918 16.3234 154.91 16.3234C150.385 16.3234 148.588 20.0734 148.588 23.9313ZM178.888 31.0651H178.156C177.015 32.5388 174.87 33.6042 172.2 33.6042C167.859 33.6042 165.545 30.7882 165.545 27.6859C165.545 24.7808 167.347 21.655 172.42 21.655H178.818V20.5098C178.818 18.1632 177.41 16.3187 173.852 16.3187C170.801 16.3187 169.22 17.5296 169.074 19.482H166.756C167.051 16.1356 169.844 14.2583 173.852 14.2583C178.301 14.2583 181.131 16.5393 181.131 20.3596V33.1255H178.888V31.0651ZM178.818 25.7711V23.6027H173.045C169.661 23.6027 167.882 25.1468 167.882 27.4982C167.882 30.1124 169.759 31.5439 172.552 31.5439C175.95 31.5439 178.818 29.155 178.818 25.7711ZM186.562 40.48L190.349 31.3984L182.558 14.7417H185.055L191.123 27.7188H192.006L197.483 14.7417H199.909L188.918 40.48H186.562Z" fill="#CFD5DF"/>
</g>
<defs>
<clipPath id="clip0_131_4296">
<rect width="200" height="40.48" fill="white"/>
</clipPath>
</defs>
</svg>
