<svg width="302" height="230" viewBox="0 0 302 230" fill="none" xmlns="http://www.w3.org/2000/svg">
<path d="M294.775 18.0284C300.003 25.7583 301.232 35.8334 298.738 47.6226C296.242 59.4178 290.042 72.7971 280.609 86.9299C261.746 115.189 230.133 146.199 190.215 173.198C150.296 200.196 109.746 217.992 76.4964 224.978C59.8676 228.472 45.1416 229.246 33.2654 227.171C21.3951 225.097 12.5016 220.206 7.27354 212.476C2.04551 204.746 0.816934 194.671 3.31096 182.882C5.80623 171.087 12.0066 157.707 21.44 143.575C40.3022 115.316 71.9151 84.305 111.834 57.3067C151.752 30.3084 192.302 12.5123 225.552 5.52606C242.181 2.03213 256.907 1.25824 268.783 3.33338C280.653 5.4075 289.547 10.2985 294.775 18.0284Z" stroke="#E2FE53" stroke-width="3"/>
</svg>
