<svg width="237" height="44" viewBox="0 0 237 44" fill="none" xmlns="http://www.w3.org/2000/svg">
<path d="M7.39075 0L15.9945 11.4325L0.927246 22.8423H26.981L29.4352 18.2693H15.0528L23.6137 11.4098L18.5342 4.5843H42.248L21.4164 43.5905H28.5505L51.8077 0.0113198H7.39075" fill="#CFD5DF"/>
<path d="M212.953 23.1365C210.442 22.8649 208.958 22.48 208.958 21.1783C208.958 19.9898 210.428 19.254 212.24 19.254C213.709 19.254 215.578 19.7068 216.763 20.4086L218.189 18.5636C216.72 17.6014 214.337 17.0921 212.14 17.0921C208.359 17.0921 205.548 18.9031 205.548 21.2802C205.548 23.9968 207.759 24.8797 211.498 25.3551C213.609 25.6268 215.436 25.8079 215.436 27.2341C215.436 28.4226 213.966 29.0792 212.011 29.0792C210.057 29.0792 208.373 28.6603 206.704 27.6077L205.277 29.6451C206.504 30.528 209.058 31.2298 211.911 31.2298C215.85 31.2298 218.689 29.4187 218.689 27.0077C218.689 24.0987 215.735 23.4422 212.796 23.1365H212.953ZM122.906 23.1365C120.395 22.8649 118.911 22.48 118.911 21.1783C118.911 19.9898 120.381 19.254 122.193 19.254C123.663 19.254 125.532 19.7068 126.716 20.4086L128.143 18.5636C126.673 17.6014 124.29 17.0921 122.093 17.0921C118.312 17.0921 115.501 18.9031 115.501 21.2802C115.501 23.9968 117.713 24.9023 121.451 25.3551C123.563 25.6268 125.389 25.8079 125.389 27.2341C125.389 28.4226 123.919 29.0792 121.965 29.0792C120.035 29.0983 118.157 28.5818 116.657 27.619L115.23 29.6564C116.457 30.5393 119.011 31.2411 121.865 31.2411C125.803 31.2411 128.642 29.4301 128.642 27.0191C128.642 24.11 125.689 23.4535 122.749 23.1479L122.906 23.1365ZM228.791 29.0112C225.652 29.0112 223.483 27.053 223.483 24.2119C223.483 21.5632 225.338 19.2993 228.391 19.2993C231.887 19.2993 232.672 21.5971 232.914 23.0347H226.879L225.737 25.1061H236.196L236.239 24.144C236.239 20.2275 233.728 17.126 228.32 17.126C223.654 17.126 220.044 20.1143 220.044 24.2232C220.044 28.4453 223.469 31.2411 228.406 31.2411C231.359 31.2411 233.97 30.4035 235.54 28.898L233.571 27.4039C232.144 28.4453 230.617 29.0112 228.748 29.0112H228.791ZM169.635 17.692C168.607 17.3524 167.466 17.2732 166.838 17.2732C165.026 17.2732 163.057 17.8391 162.13 18.8805H161.987V17.3864H158.848V30.9921H162.087V23.5554C162.087 20.6803 164.056 19.5257 166.653 19.5257C167.537 19.5257 168.122 19.6049 168.907 19.7521L169.649 17.6807L169.635 17.692ZM79.8306 17.6354C78.9383 17.3655 77.9888 17.2349 77.034 17.2505C76.1748 17.223 75.3193 17.3538 74.5345 17.6327C73.7497 17.9116 73.0571 18.3309 72.511 18.8579H72.3683V17.3637H69.2293V30.9921H72.4682V23.5554C72.4682 20.6803 74.2375 19.5257 76.8485 19.5257C77.7332 19.5257 78.3182 19.6049 79.1029 19.7521L79.8449 17.6467L79.8306 17.6354ZM51.1943 12.7794V15.2357H58.3284V30.9921H61.7528V15.2244H68.8869V12.7681H50.9089L51.1943 12.7794ZM91.0026 25.7287C91.0026 27.7661 88.8909 29.0678 85.9374 29.0678C84.1681 29.0678 82.6557 28.4113 82.6557 26.804C82.6557 25.3098 84.0825 24.3138 86.6508 24.3138C88.8196 24.3138 90.2179 24.6194 91.0312 25.0835L91.0026 25.7287ZM86.4368 17.1034C84.5249 17.1034 82.6985 17.3298 81.3288 17.7599L81.871 19.8313C83.2978 19.4465 84.7246 19.288 86.0087 19.288C88.7625 19.288 91.0026 20.2841 91.0026 22.514V22.8988C90.118 22.6272 88.7482 22.2876 86.7222 22.2876C82.4417 22.2876 79.4026 24.0534 79.4026 26.8153C79.4026 29.8036 82.2562 31.1506 85.4523 31.1506C88.1062 31.1506 89.9182 30.313 90.8742 29.3055H91.0169V30.8902H94.1559V22.3782C94.1559 18.6428 91.1025 17.0128 86.4511 17.0128L86.4368 17.1034ZM106.412 17.1034C104.244 17.1034 102.275 17.7599 101.304 19.0956H101.162V17.375H98.0226V30.9921H101.261V23.6346C101.261 20.9519 102.974 19.3333 105.542 19.3333C108.11 19.3333 109.623 20.4086 109.623 22.8988V30.9921H112.862V22.4348C112.862 18.9824 110.293 17.1147 106.27 17.1147L106.412 17.1034ZM135.519 17.1147C135.519 15.4168 136.547 14.466 138.373 14.466C139.115 14.466 140.285 14.6245 141.227 14.8848L142.254 13.0058C141.007 12.5479 139.648 12.3123 138.273 12.3153C134.992 12.3153 132.138 13.6171 132.138 17.1034V17.5222H129.969V19.786H132.138V31.1053H135.377V19.786H138.658L139.8 17.5222H135.519V17.1034V17.1147ZM148.361 28.9886C145.222 28.9886 143.053 27.0304 143.053 24.1892C143.053 21.5405 144.908 19.2767 147.961 19.2767C151.457 19.2767 152.242 21.5745 152.484 23.012H146.449L145.307 25.0835H155.766L155.809 24.1213C155.809 20.2049 153.298 17.1034 147.89 17.1034C143.224 17.1034 139.614 20.0917 139.614 24.2006C139.614 28.4226 143.039 31.2185 147.976 31.2185C150.929 31.2185 153.54 30.3809 155.11 28.8754L153.141 27.3813C151.714 28.4226 150.187 28.9886 148.318 28.9886H148.361ZM193.434 12.7681L189.396 26.9172H189.254L185.073 17.3637H182.176L177.411 26.9172H177.268L174.072 12.7681H170.576L174.943 30.9921H178.181L183.346 20.918H183.489L187.969 30.9921H191.208L196.773 12.7681H193.434ZM198.856 12.7681H202.395V15.53H198.856V12.7681ZM198.999 17.375H202.238V30.9921H198.999V17.375Z" fill="#CFD5DF"/>
</svg>
