<svg width="200" height="40" viewBox="0 0 200 40" fill="none" xmlns="http://www.w3.org/2000/svg">
<path d="M40.3653 11.1672C33.0997 11.1672 27.4228 17.3423 27.4228 25.609C27.4228 33.8757 32.9563 39.998 40.3653 39.998C47.7742 39.998 53.404 33.77 53.404 25.5562C53.404 17.3952 47.8704 11.1672 40.3653 11.1672ZM40.4143 34.0404C36.2768 34.0404 33.245 30.4426 33.245 25.6111C33.245 20.7246 36.2278 17.1289 40.3653 17.1289C44.5518 17.1289 47.5818 20.7795 47.5818 25.6111C47.5818 30.4426 44.5518 34.0404 40.4143 34.0404ZM54.9907 17.4501H58.5999V39.4634H64.3731V11.7038H54.9907V17.4501ZM12.8935 17.1269C15.9253 17.1269 18.3309 19.2205 19.244 22.3345H25.3549C24.2475 15.6776 19.3403 11.1672 12.9425 11.1672C5.67699 11.1672 0 17.3423 0 25.6111C0 33.8798 5.53357 40 12.9425 40C19.1968 40 24.2003 35.4896 25.3077 28.7779H19.244C18.3781 31.8919 15.9725 34.0404 12.9407 34.0404C8.75422 34.0404 5.82041 30.4426 5.82041 25.6111C5.82223 20.7246 8.70883 17.1269 12.8935 17.1269ZM164.685 22.926L160.452 22.2288C158.431 21.9076 156.988 21.1555 156.988 19.3831C156.988 17.4501 158.865 16.4846 161.414 16.4846C164.204 16.4846 165.985 17.8261 166.37 20.0274H171.951C171.325 14.4438 167.476 11.1693 161.559 11.1693C155.448 11.1693 151.407 14.6593 151.407 19.5986C151.407 24.3224 154.054 27.0624 159.393 27.9201L163.627 28.6173C165.697 28.9385 166.851 29.8531 166.851 31.5707C166.851 33.772 164.831 34.6847 162.04 34.6847C158.624 34.6847 156.699 33.1277 156.41 30.7658H150.733C151.264 36.1888 155.063 40 161.991 40C168.295 40 172.479 36.7783 172.479 31.2475C172.479 26.3082 169.449 23.7309 164.685 22.926ZM61.4865 0.268306C59.3697 0.268306 57.7811 1.98587 57.7811 4.34778C57.7811 6.70969 59.3678 8.42726 61.4865 8.42726C63.6034 8.42726 65.1919 6.70969 65.1919 4.34778C65.1919 1.98587 63.6034 0.268306 61.4865 0.268306ZM146.211 21.2084C146.211 15.1959 142.94 11.1693 136.012 11.1693C129.469 11.1693 125.812 14.8747 125.09 20.5661H130.816C131.105 18.3648 132.644 16.5395 135.916 16.5395C138.851 16.5395 140.294 17.9887 140.294 19.7612C140.294 22.0702 137.648 22.6597 134.376 23.0357C129.95 23.5723 124.465 25.2899 124.465 31.7333C124.465 36.7275 127.786 39.9472 133.078 39.9472C137.215 39.9472 139.813 38.0141 141.113 34.953C141.306 37.6909 143.134 39.4634 145.685 39.4634H149.052V33.7192H146.213V21.2084H146.211ZM140.534 28.1884C140.534 31.8939 137.648 34.6318 134.135 34.6318C131.969 34.6318 130.141 33.6115 130.141 31.465C130.141 28.7271 133.076 27.975 135.77 27.6538C138.368 27.3855 139.812 26.7412 140.534 25.5054V28.1884ZM109.887 11.1672C106.663 11.1672 103.969 12.6714 102.044 15.1939V0H96.271V39.4634H101.948V35.8128C103.872 38.443 106.616 40 109.887 40C116.815 40 122.06 33.8798 122.06 25.6111C122.06 17.3423 116.719 11.1672 109.887 11.1672ZM109.021 34.0404C104.884 34.0404 101.852 30.4426 101.852 25.6111C101.852 20.7795 104.931 17.1289 109.068 17.1289C113.255 17.1289 116.189 20.7267 116.189 25.6111C116.189 30.4426 113.159 34.0404 109.021 34.0404ZM82.4625 11.1672C78.7099 11.1672 76.2554 12.8848 74.8121 15.3016V11.7038H69.0861V39.4614H74.8593V24.3752C74.8593 20.1331 77.2648 17.1269 80.825 17.1269C84.1455 17.1269 86.2133 19.7571 86.2133 23.5703V39.4634H91.9865V23.0886C91.9883 16.1065 88.7658 11.1672 82.4625 11.1672ZM200 24.6984C200 16.7529 194.804 11.1693 187.827 11.1693C180.418 11.1693 174.981 17.3972 174.981 25.6111C174.981 34.2558 180.803 40 187.923 40C193.938 40 198.653 36.0262 199.855 30.3898H193.84C192.974 32.8594 190.857 34.2558 188.018 34.2558C184.312 34.2558 181.522 31.6784 180.898 27.168H199.998V24.6984H200ZM181.235 22.5499C182.15 18.6839 184.748 16.8057 187.731 16.8057C191.003 16.8057 193.504 18.8993 194.082 22.5499H181.235Z" fill="#CFD5DF"/>
</svg>
