<svg width="149" height="39" viewBox="0 0 149 39" fill="none" xmlns="http://www.w3.org/2000/svg">
<path fill-rule="evenodd" clip-rule="evenodd" d="M126.042 5.81767V29.3397C126.02 29.7138 126.175 30.0878 126.441 30.3739C126.707 30.6599 127.084 30.8139 127.46 30.8139H127.881C128.28 30.8139 128.657 30.6599 128.923 30.3739C129.189 30.0878 129.344 29.7138 129.344 29.3397V5.81767H132.092V29.9558C132.092 31.7821 130.629 33.2564 128.79 33.3004H126.685C125.776 33.3004 124.912 32.9703 124.269 32.3322C123.626 31.6941 123.272 30.8579 123.272 29.9558V5.81767H126.042ZM145.588 5.55362C147.428 5.59763 148.913 7.31392 148.913 9.16224V11.3406C148.913 11.6487 148.713 11.9127 148.403 12.0007L146.12 12.6388V9.5143C146.12 8.72216 145.455 8.06205 144.658 8.06205C143.86 8.06205 143.195 8.70016 143.195 9.5143V12.1107C143.195 13.717 144.392 15.7634 144.392 15.7634L147.672 22.0344C149.001 24.5209 148.89 26.3472 148.89 26.3472V29.8238C148.89 30.7259 148.536 31.6061 147.893 32.2662C147.251 32.9263 146.364 33.2784 145.433 33.3004H143.705C141.843 33.1903 140.38 31.6721 140.38 29.8238V25.9291C140.38 25.621 140.58 25.357 140.89 25.269L143.173 24.6309V29.3837C143.173 30.1758 143.838 30.8139 144.658 30.8139C145.455 30.8139 146.12 30.1538 146.098 29.3397V26.2372C146.098 24.6529 144.901 22.5405 144.901 22.5405L141.666 16.2695C140.336 13.783 140.447 11.9567 140.447 11.9567V9.16224C140.447 7.26991 141.976 5.55362 143.904 5.55362H145.588ZM93.7083 5.55362C95.5699 5.64163 97.0325 7.1819 97.0325 9.03021V29.9118C97.0104 31.7381 95.5477 33.2344 93.7083 33.3224H91.603C89.7192 33.3004 88.1901 31.7821 88.1679 29.9118V9.00821C88.1679 8.10606 88.5225 7.22591 89.1652 6.56579C89.8079 5.90568 90.6943 5.55362 91.6251 5.53162L93.7083 5.55362ZM62.1281 5.81767L61.4633 8.10606C61.3746 8.41411 61.1087 8.61214 60.7984 8.61214H56.3883V17.3696H60.9536L60.2887 19.658C60.2001 19.9441 59.9341 20.1641 59.6239 20.1641H56.3883V30.2638H62.1281L61.4854 32.5302C61.3968 32.8383 61.1309 33.0363 60.8206 33.0363H53.6403V5.81767H62.1281ZM111.127 5.81767C113.033 5.83967 114.54 7.35793 114.54 9.22825V29.6037C114.54 31.4741 113.011 33.0143 111.127 33.0143H105.808V5.81767H111.127ZM74.9153 14.5752L77.4417 5.81767H80.2562L76.3337 19.438L80.2784 33.0583H77.4639L74.9153 24.2788L72.3889 33.0363H69.5744L73.497 19.438L69.5522 5.81767H72.3667L74.9153 14.5752ZM92.7775 30.8579C93.1764 30.8579 93.5532 30.6819 93.8191 30.3959C94.085 30.1098 94.2402 29.7358 94.218 29.3397V9.5143C94.2402 9.11823 94.085 8.74417 93.8191 8.45812C93.5532 8.17207 93.1764 8.01804 92.7775 7.99604H92.3564C91.5365 8.04005 90.8938 8.70016 90.8938 9.5143V29.3397C90.8938 30.1538 91.5365 30.8139 92.3564 30.8579H92.7775ZM110.352 30.2859C111.127 30.2859 111.814 29.8898 111.814 28.8336V10.0204C111.814 9.00821 111.127 8.61214 110.352 8.61214H108.557V30.2859H110.352Z" fill="#CFD5DF"/>
<path d="M27.9772 19.504L39.5012 30.946H35.4235C34.7365 30.946 34.0495 30.6599 33.562 30.1759L22.8579 19.504L33.6063 8.81019C34.0938 8.32611 34.7587 8.04006 35.4678 8.06207H39.5012L27.9772 19.504ZM6.85731 8.81019C6.36976 8.32611 5.70491 8.04006 4.99574 8.06207H0.940186L12.4642 19.504L0.940186 30.946H5.01791C5.70491 30.946 6.39192 30.6599 6.87947 30.1759L17.6057 19.482L6.85731 8.81019ZM20.2207 22.1225L9.45021 32.7943C8.96266 33.2784 8.69672 33.9385 8.69672 34.6426V38.6693L20.2207 27.2273L31.7447 38.6693V34.6206C31.7447 33.9385 31.4788 33.2564 30.9912 32.7723L20.2207 22.1225ZM20.2207 16.8856L30.9912 6.21375C31.4788 5.72967 31.7447 5.06955 31.7447 4.36543V0.338745L20.2207 11.7807L8.69672 0.338745V4.36543C8.69672 5.04755 8.96266 5.72967 9.45021 6.21375L20.2207 16.8856Z" fill="#CFD5DF"/>
</svg>
