<svg width="40" height="40" viewBox="0 0 40 40" fill="none" xmlns="http://www.w3.org/2000/svg">
<rect width="40" height="40" rx="12" fill="#F4F7FF"/>
<path d="M19.9977 17.0509C19.6229 17.0499 19.2638 16.8938 18.9994 16.617C18.7349 16.3399 18.5867 15.9649 18.5874 15.574C18.5878 15.183 18.7373 14.8085 19.0027 14.5324C19.2678 14.2563 19.6274 14.1014 20.0021 14.1017C20.3769 14.1019 20.7362 14.2576 21.0012 14.5341C21.2661 14.8105 21.4148 15.1855 21.4148 15.5764C21.4157 15.9683 21.2665 16.3446 21.0004 16.6214C20.7344 16.8982 20.3734 17.0529 19.9977 17.0509M31.8076 23.2856C31.3947 20.9108 29.5747 14.8305 29.165 13.9967H29.1648C28.9818 13.7348 28.7314 13.532 28.4429 13.4118C28.4044 13.1225 28.3229 12.8413 28.2011 12.5782C27.6437 12.1802 27.0279 11.8797 26.3776 11.6886C25.5515 11.5029 24.3627 11.3663 24.1681 11.4575V11.4572C23.7991 11.661 23.4152 11.833 23.0196 11.9722H22.3481H17.647H16.9754C16.5815 11.833 16.1987 11.6622 15.8303 11.4609C15.6389 11.3697 14.4501 11.5063 13.6275 11.692C12.9798 11.8848 12.3667 12.1853 11.8108 12.5816C11.6885 12.8448 11.6058 13.126 11.5655 13.4152C11.2772 13.5357 11.0268 13.7385 10.8436 14.0002C10.4372 14.8338 8.61391 20.9141 8.201 23.2891C7.78804 25.6639 8.06678 26.6832 8.5369 27.4538H8.53666C8.91214 28.0378 9.49633 28.4402 10.1588 28.5711C10.4947 28.6026 13.8088 25.1105 14.3966 24.7462C14.9843 24.3819 15.0681 24.1088 17.1165 24.0807C18.6008 24.0562 19.5073 24.0807 19.8868 24.0807H20.0983H22.8721C24.9072 24.1088 25.0011 24.3819 25.592 24.7462C26.183 25.1105 29.5108 28.5993 29.8331 28.5711C30.4941 28.4392 31.0769 28.0368 31.4517 27.4538C31.9387 26.6798 32.2174 25.6639 31.7876 23.2891" fill="#31D0C7"/>
</svg>
