<svg width="40" height="40" viewBox="0 0 40 40" fill="none" xmlns="http://www.w3.org/2000/svg">
<rect width="40" height="40" rx="12" fill="#EBEEF8"/>
<path d="M10.548 14.0269C10.382 14.0272 10.2164 14.0447 10.0541 14.0787L9.84261 14.1315C9.31139 14.2873 8.8455 14.6059 8.51391 15.04C8.18212 15.474 8.00194 16.0009 8 16.5427V17.3778C8.00117 17.6598 8.0519 17.9394 8.14986 18.2046H15.7152V14.0269L10.548 14.0269ZM30.1305 14.1315L29.9188 14.0796H29.919C29.7472 14.0443 29.5721 14.027 29.3965 14.0276H24.2848V18.2044H31.8501V18.2046C31.9481 17.9394 31.9988 17.6597 32 17.3778V16.5426C31.9983 15.997 31.815 15.4668 31.4777 15.0318C31.1405 14.5969 30.6676 14.2808 30.1304 14.1314L30.1305 14.1315ZM9.71004 19.0644V29.4858C9.71121 30.0278 9.8912 30.555 10.2234 30.9894C10.5553 31.4236 11.0216 31.742 11.5534 31.8971L11.7736 31.9489V31.9491C11.933 31.9829 12.0957 32 12.2588 32H15.7149V19.0645L9.71004 19.0644ZM24.2848 19.0644V31.9999H27.6886C27.8605 32.0007 28.0319 31.9836 28.1998 31.9491C28.2791 31.9312 28.3497 31.9141 28.4115 31.8972V31.897C28.9507 31.7511 29.4257 31.4359 29.7633 31.0002C30.1011 30.5645 30.2827 30.0324 30.2802 29.4858V19.0644L24.2848 19.0644Z" fill="#F3BA2F"/>
<path d="M17.4253 14.0269H22.5743V31.9998H17.4253V14.0269Z" fill="#F3BA2F"/>
<path d="M27.1473 9.0053C26.7337 8.59656 26.2176 8.30098 25.6505 8.14794C25.0067 7.95069 24.3165 7.95069 23.6729 8.14794C23.1142 8.30551 22.6064 8.6011 22.1986 9.00622L20.3142 10.8373L18.4326 8.99505C18.0551 8.63244 17.5983 8.35794 17.0968 8.19216L17.0533 8.1802C16.9046 8.13085 16.7518 8.09325 16.5969 8.068C16.1654 7.98713 15.7223 7.98713 15.2908 8.068C15.123 8.09591 14.958 8.13825 14.7978 8.19482C14.3014 8.36398 13.8511 8.64191 13.4814 9.00699C12.9255 9.54538 12.5731 10.2518 12.4817 11.0112C12.3902 11.7706 12.5653 12.5377 12.978 13.1872L13.0425 13.2901H27.5939L27.6584 13.1879V13.1881C28.0701 12.5371 28.2437 11.7692 28.1508 11.0095C28.0581 10.2497 27.7041 9.54327 27.1472 9.00526L27.1473 9.0053ZM14.8564 12.216C14.6786 11.9857 14.5812 11.7056 14.5787 11.4172C14.5812 11.0685 14.7248 10.7349 14.9783 10.4893C15.2317 10.2436 15.5744 10.1058 15.9315 10.106C16.2887 10.1062 16.6312 10.2444 16.8844 10.4902L18.6513 12.2159L14.8564 12.216ZM21.9256 12.216L23.6923 10.4902C24.0174 10.1734 24.4855 10.0397 24.9343 10.136C25.3829 10.2322 25.7506 10.5449 25.9102 10.9656C26.0696 11.3865 25.9986 11.8577 25.722 12.2159L21.9256 12.216Z" fill="#31D0C7"/>
</svg>
