<svg width="146" height="33" viewBox="0 0 146 33" fill="none" xmlns="http://www.w3.org/2000/svg">
<g clip-path="url(#clip0_995_3026)">
<path d="M139.589 3.48462C139.13 14.0087 133.907 27.4483 120.71 32.5406" stroke="#C1DF24" stroke-miterlimit="10"/>
<path d="M142.11 3.01539C141.921 5.911 139.06 8.07772 139.06 8.07772C139.06 8.07772 136.499 5.55155 136.678 2.65593C136.688 2.4762 136.708 2.29648 136.748 2.12673C137.286 -0.908666 141.971 -0.60912 142.12 2.4762C142.12 2.65593 142.12 2.83566 142.12 3.01539H142.11Z" fill="#C1DF24"/>
<path d="M143.297 15.0572C140.526 15.6762 137.695 13.5694 137.695 13.5694C137.695 13.5694 139.36 10.4542 142.141 9.8351C142.32 9.79516 142.49 9.7652 142.669 9.74523C145.679 9.42572 146.676 13.9189 143.815 14.9074C143.646 14.9673 143.477 15.0172 143.307 15.0572H143.297Z" fill="#C1DF24"/>
<path d="M139.519 23.7139C136.708 23.3245 134.784 20.359 134.784 20.359C134.784 20.359 137.436 18.0225 140.246 18.4119C140.426 18.4319 140.595 18.4719 140.765 18.5118C143.695 19.2706 143.067 23.8237 140.037 23.7539C139.858 23.7539 139.688 23.7339 139.509 23.7139H139.519Z" fill="#C1DF24"/>
<path d="M133.529 31.3324C130.887 30.264 129.751 26.9191 129.751 26.9191C129.751 26.9191 132.891 25.3015 135.522 26.3599C135.712 26.4398 135.891 26.5197 136.061 26.6195C138.672 28.0873 136.928 32.2909 134.037 31.4922C133.868 31.4422 133.688 31.3823 133.519 31.3224L133.529 31.3324Z" fill="#C1DF24"/>
<path d="M132.422 11.2129C134.176 13.4495 137.705 13.6092 137.705 13.6092C137.705 13.6092 138.383 10.1445 136.628 7.89789C136.499 7.73813 136.369 7.58836 136.23 7.44857C134.097 5.35175 130.558 8.19743 132.123 10.7536C132.213 10.9033 132.322 11.0531 132.432 11.2029L132.422 11.2129Z" fill="#C1DF24"/>
<path d="M129.601 17.7331C131.186 20.0995 134.685 20.5289 134.685 20.5289C134.685 20.5289 135.622 17.124 134.037 14.7576C133.927 14.5879 133.797 14.4281 133.668 14.2784C131.704 12.0218 127.956 14.5979 129.322 17.2638C129.402 17.4236 129.491 17.5833 129.601 17.7331Z" fill="#C1DF24"/>
<path d="M124.907 23.734C126.302 26.2103 129.761 26.9092 129.761 26.9092C129.761 26.9092 130.957 23.5843 129.562 21.108C129.462 20.9283 129.352 20.7585 129.233 20.5988C127.438 18.1924 123.511 20.479 124.667 23.2448C124.737 23.4145 124.817 23.5743 124.907 23.734Z" fill="#C1DF24"/>
<path d="M6.41113 3.48462C6.86965 14.0087 12.0927 27.4483 25.2899 32.5406" stroke="#C1DF24" stroke-miterlimit="10"/>
<path d="M3.88887 3.01539C4.07826 5.911 6.93899 8.07772 6.93899 8.07772C6.93899 8.07772 9.50068 5.55155 9.32127 2.65593C9.3113 2.4762 9.29136 2.29648 9.25149 2.12673C8.71324 -0.908666 4.02842 -0.60912 3.87891 2.4762C3.87891 2.65593 3.87891 2.83566 3.87891 3.01539H3.88887Z" fill="#C1DF24"/>
<path d="M2.71293 15.0572C5.48394 15.6762 8.31477 13.5694 8.31477 13.5694C8.31477 13.5694 6.65016 10.4542 3.86918 9.8351C3.68976 9.79516 3.52031 9.7652 3.34089 9.74523C0.330647 9.42572 -0.666122 13.9189 2.19461 14.9074C2.36406 14.9673 2.53351 15.0172 2.70296 15.0572H2.71293Z" fill="#C1DF24"/>
<path d="M6.48105 23.7139C9.29194 23.3245 11.2157 20.359 11.2157 20.359C11.2157 20.359 8.5643 18.0225 5.75341 18.4119C5.57399 18.4319 5.40454 18.4719 5.23509 18.5118C2.30459 19.2706 2.93255 23.8237 5.96273 23.7539C6.14215 23.7539 6.3116 23.7339 6.49102 23.7139H6.48105Z" fill="#C1DF24"/>
<path d="M12.4713 31.3324C15.1128 30.264 16.2491 26.9191 16.2491 26.9191C16.2491 26.9191 13.1093 25.3015 10.4778 26.3599C10.2884 26.4398 10.109 26.5197 9.93955 26.6195C7.32801 28.0873 9.07236 32.2909 11.963 31.4922C12.1324 31.4422 12.3119 31.3823 12.4813 31.3224L12.4713 31.3324Z" fill="#C1DF24"/>
<path d="M13.5777 11.2129C11.8234 13.4495 8.2948 13.6092 8.2948 13.6092C8.2948 13.6092 7.617 10.1445 9.37131 7.89789C9.50089 7.73813 9.63047 7.58836 9.77002 7.44857C11.9031 5.35175 15.4416 8.19743 13.8767 10.7536C13.787 10.9033 13.6774 11.0531 13.5677 11.2029L13.5777 11.2129Z" fill="#C1DF24"/>
<path d="M16.4084 17.7331C14.8235 20.0995 11.3248 20.5289 11.3248 20.5289C11.3248 20.5289 10.3879 17.124 11.9727 14.7576C12.0824 14.5879 12.212 14.4281 12.3415 14.2784C14.3052 12.0218 18.053 14.5979 16.6875 17.2638C16.6077 17.4236 16.518 17.5833 16.4084 17.7331Z" fill="#C1DF24"/>
<path d="M21.1029 23.734C19.7074 26.2103 16.2486 26.9092 16.2486 26.9092C16.2486 26.9092 15.0525 23.5843 16.448 21.108C16.5476 20.9283 16.6573 20.7585 16.7769 20.5988C18.5711 18.1924 22.4984 20.479 21.3421 23.2448C21.2723 23.4145 21.1926 23.5743 21.1029 23.734Z" fill="#C1DF24"/>
</g>
<defs>
<clipPath id="clip0_995_3026">
<rect width="145" height="33" fill="white" transform="translate(0.5)"/>
</clipPath>
</defs>
</svg>
