<svg width="24" height="24" viewBox="0 0 24 24" fill="none" xmlns="http://www.w3.org/2000/svg">
<g opacity="0.8">
<path d="M11.9978 0.163574L11.8455 0.681379V15.7069L11.9978 15.8589L18.9725 11.7362L11.9978 0.163574Z" fill="url(#paint0_linear_1350_4664)"/>
<path d="M11.998 0.163818L5.02332 11.7365L11.998 15.8592V8.56632V0.163818Z" fill="url(#paint1_linear_1350_4664)"/>
<path d="M11.998 18.1282L11.9121 18.2329V23.5853L11.998 23.836L18.9768 14.0076L11.998 18.1282Z" fill="url(#paint2_linear_1350_4664)"/>
<path d="M11.998 23.8361V18.1282L5.02332 14.0076L11.998 23.8361Z" fill="url(#paint3_linear_1350_4664)"/>
<path d="M11.9978 15.859L18.9724 11.7363L11.9978 8.56616V15.859Z" fill="url(#paint4_linear_1350_4664)"/>
<path d="M5.02332 11.7363L11.9979 15.859V8.56616L5.02332 11.7363Z" fill="url(#paint5_linear_1350_4664)"/>
</g>
<defs>
<linearGradient id="paint0_linear_1350_4664" x1="15.409" y1="0.163574" x2="15.409" y2="15.8589" gradientUnits="userSpaceOnUse">
<stop stop-color="#A3A2FF"/>
<stop offset="1" stop-color="#2E2BBA"/>
</linearGradient>
<linearGradient id="paint1_linear_1350_4664" x1="8.51065" y1="0.163818" x2="8.51065" y2="15.8592" gradientUnits="userSpaceOnUse">
<stop stop-color="#A3A2FF"/>
<stop offset="1" stop-color="#2E2BBA"/>
</linearGradient>
<linearGradient id="paint2_linear_1350_4664" x1="15.4445" y1="14.0076" x2="15.4445" y2="23.836" gradientUnits="userSpaceOnUse">
<stop stop-color="#A3A2FF"/>
<stop offset="1" stop-color="#2E2BBA"/>
</linearGradient>
<linearGradient id="paint3_linear_1350_4664" x1="8.51065" y1="14.0076" x2="8.51065" y2="23.8361" gradientUnits="userSpaceOnUse">
<stop stop-color="#A3A2FF"/>
<stop offset="1" stop-color="#2E2BBA"/>
</linearGradient>
<linearGradient id="paint4_linear_1350_4664" x1="15.4851" y1="8.56616" x2="15.4851" y2="15.859" gradientUnits="userSpaceOnUse">
<stop stop-color="#A3A2FF"/>
<stop offset="1" stop-color="#2E2BBA"/>
</linearGradient>
<linearGradient id="paint5_linear_1350_4664" x1="8.51059" y1="8.56616" x2="8.51059" y2="15.859" gradientUnits="userSpaceOnUse">
<stop stop-color="#A3A2FF"/>
<stop offset="1" stop-color="#2E2BBA"/>
</linearGradient>
</defs>
</svg>
