<svg width="50" height="50" viewBox="0 0 50 50" fill="none" xmlns="http://www.w3.org/2000/svg">
<g clip-path="url(#clip0_819_1439)">
<path d="M25 0.5C11.4867 0.5 0.5 11.4867 0.5 25C0.5 38.5133 11.4867 49.5 25 49.5C38.5133 49.5 49.5 38.5133 49.5 25C49.5 11.4867 38.5133 0.5 25 0.5Z" fill="#E2FE53"/>
<path d="M8 39.6685C8 30.5047 15.4288 23.0759 24.5926 23.0759C33.7564 23.0759 41.1852 30.5047 41.1852 39.6685V49.1068C41.1852 49.6819 40.719 50.1481 40.1439 50.1481H9.04124C8.46618 50.1481 8 49.6819 8 49.1068V39.6685Z" fill="white"/>
<ellipse cx="16.96" cy="30.8592" rx="1.32741" ry="1.35361" fill="#15151B"/>
<ellipse opacity="0.5" cx="16.96" cy="30.8593" rx="0.796444" ry="0.812164" fill="#15151B"/>
<ellipse cx="17.3582" cy="30.4532" rx="0.398222" ry="0.406082" fill="white"/>
<ellipse cx="32.8889" cy="30.8592" rx="1.32741" ry="1.35361" fill="#15151B"/>
<ellipse opacity="0.5" cx="32.8887" cy="30.8593" rx="0.796445" ry="0.812164" fill="#15151B"/>
<ellipse cx="33.2871" cy="30.4532" rx="0.398222" ry="0.406082" fill="white"/>
<path d="M22.2695 33.228C22.2695 33.228 22.9239 33.8202 23.431 33.8202C23.9381 33.8202 24.5925 33.228 24.5925 33.228C24.5925 33.228 25.2469 33.8202 25.754 33.8202C26.2611 33.8202 26.9155 33.228 26.9155 33.228" stroke="#15151B" stroke-width="1.3125" stroke-linecap="round"/>
<ellipse cx="32.0594" cy="22.7376" rx="2.15704" ry="4.73762" fill="white"/>
<ellipse cx="16.794" cy="22.7376" rx="2.15704" ry="4.73762" fill="white"/>
</g>
<defs>
<clipPath id="clip0_819_1439">
<rect x="0.5" y="0.5" width="49" height="49" rx="24.5" fill="white"/>
</clipPath>
</defs>
</svg>
