<svg width="39" height="39" viewBox="0 0 39 39" fill="none" xmlns="http://www.w3.org/2000/svg">
<rect opacity="0.25" x="0.75" y="0.75" width="37.5" height="37.5" rx="18.75" stroke="#3B3E4A" stroke-width="1.5"/>
<path d="M20.2812 19.8564C20.2812 22.9986 17.7558 25.5459 14.6407 25.5459C11.5256 25.5459 9 22.9981 9 19.8564C9 16.7147 11.5254 14.1666 14.6407 14.1666C17.756 14.1666 20.2812 16.7141 20.2812 19.8564Z" fill="white"/>
<path d="M26.4688 19.8565C26.4688 22.8142 25.2061 25.2129 23.6485 25.2129C22.0908 25.2129 20.8281 22.8142 20.8281 19.8565C20.8281 16.8987 22.0906 14.5 23.6483 14.5C25.2059 14.5 26.4686 16.8979 26.4686 19.8565" fill="white"/>
<path d="M29 19.8564C29 22.5058 28.556 24.6549 28.0081 24.6549C27.4602 24.6549 27.0164 22.5064 27.0164 19.8564C27.0164 17.2064 27.4604 15.0579 28.0081 15.0579C28.5558 15.0579 29 17.2062 29 19.8564Z" fill="white"/>
</svg>
