<svg width="22" height="20" viewBox="0 0 22 20" fill="none" xmlns="http://www.w3.org/2000/svg">
<path d="M20.0039 0.791504L12.2 6.58758L13.6431 3.16797L20.0039 0.791504Z" fill="#E2761B" stroke="#E2761B" stroke-linecap="round" stroke-linejoin="round"/>
<path d="M1.98822 0.791504L9.7294 6.64249L8.35685 3.16797L1.98822 0.791504Z" fill="#E4761B" stroke="#E4761B" stroke-linecap="round" stroke-linejoin="round"/>
<path d="M17.196 14.2268L15.1176 17.4111L19.5647 18.6346L20.8431 14.2974L17.196 14.2268Z" fill="#E4761B" stroke="#E4761B" stroke-linecap="round" stroke-linejoin="round"/>
<path d="M1.16467 14.2974L2.43526 18.6346L6.88232 17.4111L4.80389 14.2268L1.16467 14.2974Z" fill="#E4761B" stroke="#E4761B" stroke-linecap="round" stroke-linejoin="round"/>
<path d="M6.63137 8.84638L5.39215 10.7209L9.80784 10.917L9.65097 6.17188L6.63137 8.84638Z" fill="#E4761B" stroke="#E4761B" stroke-linecap="round" stroke-linejoin="round"/>
<path d="M15.3608 8.84635L12.302 6.11694L12.2 10.9169L16.6079 10.7209L15.3608 8.84635Z" fill="#E4761B" stroke="#E4761B" stroke-linecap="round" stroke-linejoin="round"/>
<path d="M6.88239 17.4112L9.53337 16.1171L7.24317 14.3289L6.88239 17.4112Z" fill="#E4761B" stroke="#E4761B" stroke-linecap="round" stroke-linejoin="round"/>
<path d="M12.4588 16.1171L15.1176 17.4112L14.749 14.3289L12.4588 16.1171Z" fill="#E4761B" stroke="#E4761B" stroke-linecap="round" stroke-linejoin="round"/>
<path d="M15.1177 17.4111L12.4589 16.1169L12.6706 17.8503L12.6471 18.5797L15.1177 17.4111Z" fill="#D7C1B3" stroke="#D7C1B3" stroke-linecap="round" stroke-linejoin="round"/>
<path d="M6.88239 17.4111L9.35297 18.5797L9.33729 17.8503L9.53337 16.1169L6.88239 17.4111Z" fill="#D7C1B3" stroke="#D7C1B3" stroke-linecap="round" stroke-linejoin="round"/>
<path d="M9.39212 13.1838L7.18036 12.5328L8.74114 11.8191L9.39212 13.1838Z" fill="#233447" stroke="#233447" stroke-linecap="round" stroke-linejoin="round"/>
<path d="M12.6 13.1838L13.251 11.8191L14.8196 12.5328L12.6 13.1838Z" fill="#233447" stroke="#233447" stroke-linecap="round" stroke-linejoin="round"/>
<path d="M6.88233 17.4111L7.2588 14.2268L4.80389 14.2974L6.88233 17.4111Z" fill="#CD6116" stroke="#CD6116" stroke-linecap="round" stroke-linejoin="round"/>
<path d="M14.7411 14.2268L15.1176 17.4111L17.1961 14.2974L14.7411 14.2268Z" fill="#CD6116" stroke="#CD6116" stroke-linecap="round" stroke-linejoin="round"/>
<path d="M16.6079 10.7209L12.2 10.917L12.6079 13.1837L13.2588 11.819L14.8275 12.5327L16.6079 10.7209Z" fill="#CD6116" stroke="#CD6116" stroke-linecap="round" stroke-linejoin="round"/>
<path d="M7.18039 12.5327L8.74901 11.819L9.39215 13.1837L9.80784 10.917L5.39215 10.7209L7.18039 12.5327Z" fill="#CD6116" stroke="#CD6116" stroke-linecap="round" stroke-linejoin="round"/>
<path d="M5.39215 10.7209L7.24313 14.3288L7.18039 12.5327L5.39215 10.7209Z" fill="#E4751F" stroke="#E4751F" stroke-linecap="round" stroke-linejoin="round"/>
<path d="M14.8274 12.5327L14.749 14.3288L16.6078 10.7209L14.8274 12.5327Z" fill="#E4751F" stroke="#E4751F" stroke-linecap="round" stroke-linejoin="round"/>
<path d="M9.80784 10.917L9.39215 13.1837L9.9098 15.8582L10.0274 12.3366L9.80784 10.917Z" fill="#E4751F" stroke="#E4751F" stroke-linecap="round" stroke-linejoin="round"/>
<path d="M12.2 10.917L11.9882 12.3288L12.0823 15.8582L12.6078 13.1837L12.2 10.917Z" fill="#E4751F" stroke="#E4751F" stroke-linecap="round" stroke-linejoin="round"/>
<path d="M12.6078 13.1837L12.0823 15.8582L12.4588 16.117L14.749 14.3288L14.8274 12.5327L12.6078 13.1837Z" fill="#F6851B" stroke="#F6851B" stroke-linecap="round" stroke-linejoin="round"/>
<path d="M7.18036 12.5327L7.2431 14.3288L9.5333 16.117L9.90977 15.8582L9.39212 13.1837L7.18036 12.5327Z" fill="#F6851B" stroke="#F6851B" stroke-linecap="round" stroke-linejoin="round"/>
<path d="M12.6471 18.5798L12.6706 17.8503L12.4745 17.6778H9.51768L9.33729 17.8503L9.35297 18.5798L6.88239 17.4111L7.74513 18.117L9.49415 19.3327H12.4981L14.2549 18.117L15.1177 17.4111L12.6471 18.5798Z" fill="#C0AD9E" stroke="#C0AD9E" stroke-linecap="round" stroke-linejoin="round"/>
<path d="M12.4588 16.117L12.0824 15.8582H9.90983L9.53336 16.117L9.33728 17.8503L9.51767 17.6778H12.4745L12.6706 17.8503L12.4588 16.117Z" fill="#161616" stroke="#161616" stroke-linecap="round" stroke-linejoin="round"/>
<path d="M20.3334 6.96405L21 3.76405L20.004 0.791504L12.4589 6.3915L15.3608 8.84641L19.4628 10.0464L20.3726 8.98758L19.9804 8.70523L20.6079 8.13268L20.1216 7.75621L20.7491 7.27778L20.3334 6.96405Z" fill="#763D16" stroke="#763D16" stroke-linecap="round" stroke-linejoin="round"/>
<path d="M1 3.76405L1.66667 6.96405L1.24314 7.27778L1.87059 7.75621L1.39216 8.13268L2.01961 8.70523L1.62745 8.98758L2.52941 10.0464L6.63137 8.84641L9.53333 6.3915L1.98824 0.791504L1 3.76405Z" fill="#763D16" stroke="#763D16" stroke-linecap="round" stroke-linejoin="round"/>
<path d="M19.4627 10.0464L15.3608 8.84644L16.6078 10.7209L14.749 14.3288L17.1961 14.2974H20.8431L19.4627 10.0464Z" fill="#F6851B" stroke="#F6851B" stroke-linecap="round" stroke-linejoin="round"/>
<path d="M6.63134 8.84644L2.52938 10.0464L1.16467 14.2974H4.80389L7.2431 14.3288L5.39212 10.7209L6.63134 8.84644Z" fill="#F6851B" stroke="#F6851B" stroke-linecap="round" stroke-linejoin="round"/>
<path d="M12.2 10.917L12.4588 6.3915L13.651 3.16797H8.35687L9.53334 6.3915L9.80785 10.917L9.90197 12.3444L9.90981 15.8582H12.0824L12.098 12.3444L12.2 10.917Z" fill="#F6851B" stroke="#F6851B" stroke-linecap="round" stroke-linejoin="round"/>
</svg>
