<svg width="40" height="40" viewBox="0 0 40 40" fill="none" xmlns="http://www.w3.org/2000/svg">
<rect width="40" height="40" rx="20" fill="white"/>
<g clip-path="url(#clip0_1369_4103)">
<path d="M29.0039 10.7812L21.2 16.5773L22.6431 13.1577L29.0039 10.7812Z" fill="#E2761B" stroke="#E2761B" stroke-linecap="round" stroke-linejoin="round"/>
<path d="M10.9882 10.7812L18.7293 16.6322L17.3568 13.1577L10.9882 10.7812Z" fill="#E4761B" stroke="#E4761B" stroke-linecap="round" stroke-linejoin="round"/>
<path d="M26.1961 24.2166L24.1177 27.4009L28.5647 28.6244L29.8432 24.2871L26.1961 24.2166Z" fill="#E4761B" stroke="#E4761B" stroke-linecap="round" stroke-linejoin="round"/>
<path d="M10.1647 24.2871L11.4353 28.6244L15.8823 27.4009L13.8039 24.2166L10.1647 24.2871Z" fill="#E4761B" stroke="#E4761B" stroke-linecap="round" stroke-linejoin="round"/>
<path d="M15.6313 18.8361L14.3921 20.7106L18.8078 20.9067L18.6509 16.1616L15.6313 18.8361Z" fill="#E4761B" stroke="#E4761B" stroke-linecap="round" stroke-linejoin="round"/>
<path d="M24.3607 18.8361L21.3019 16.1067L21.2 20.9067L25.6078 20.7106L24.3607 18.8361Z" fill="#E4761B" stroke="#E4761B" stroke-linecap="round" stroke-linejoin="round"/>
<path d="M15.8823 27.401L18.5333 26.1068L16.2431 24.3186L15.8823 27.401Z" fill="#E4761B" stroke="#E4761B" stroke-linecap="round" stroke-linejoin="round"/>
<path d="M21.4587 26.1068L24.1176 27.401L23.7489 24.3186L21.4587 26.1068Z" fill="#E4761B" stroke="#E4761B" stroke-linecap="round" stroke-linejoin="round"/>
<path d="M24.1176 27.4008L21.4587 26.1067L21.6705 27.84L21.647 28.5694L24.1176 27.4008Z" fill="#D7C1B3" stroke="#D7C1B3" stroke-linecap="round" stroke-linejoin="round"/>
<path d="M15.8823 27.4008L18.3529 28.5694L18.3372 27.84L18.5333 26.1067L15.8823 27.4008Z" fill="#D7C1B3" stroke="#D7C1B3" stroke-linecap="round" stroke-linejoin="round"/>
<path d="M18.3922 23.1733L16.1804 22.5223L17.7412 21.8086L18.3922 23.1733Z" fill="#233447" stroke="#233447" stroke-linecap="round" stroke-linejoin="round"/>
<path d="M21.6 23.1733L22.251 21.8086L23.8196 22.5223L21.6 23.1733Z" fill="#233447" stroke="#233447" stroke-linecap="round" stroke-linejoin="round"/>
<path d="M15.8824 27.4009L16.2589 24.2166L13.804 24.2871L15.8824 27.4009Z" fill="#CD6116" stroke="#CD6116" stroke-linecap="round" stroke-linejoin="round"/>
<path d="M23.7412 24.2166L24.1177 27.4009L26.1961 24.2871L23.7412 24.2166Z" fill="#CD6116" stroke="#CD6116" stroke-linecap="round" stroke-linejoin="round"/>
<path d="M25.6079 20.7107L21.2001 20.9068L21.6079 23.1734L22.2589 21.8087L23.8275 22.5225L25.6079 20.7107Z" fill="#CD6116" stroke="#CD6116" stroke-linecap="round" stroke-linejoin="round"/>
<path d="M16.1804 22.5225L17.7491 21.8087L18.3922 23.1734L18.8079 20.9068L14.3922 20.7107L16.1804 22.5225Z" fill="#CD6116" stroke="#CD6116" stroke-linecap="round" stroke-linejoin="round"/>
<path d="M14.3922 20.7107L16.2432 24.3185L16.1804 22.5225L14.3922 20.7107Z" fill="#E4751F" stroke="#E4751F" stroke-linecap="round" stroke-linejoin="round"/>
<path d="M23.8275 22.5225L23.749 24.3185L25.6078 20.7107L23.8275 22.5225Z" fill="#E4751F" stroke="#E4751F" stroke-linecap="round" stroke-linejoin="round"/>
<path d="M18.8079 20.9067L18.3922 23.1734L18.9099 25.8479L19.0275 22.3263L18.8079 20.9067Z" fill="#E4751F" stroke="#E4751F" stroke-linecap="round" stroke-linejoin="round"/>
<path d="M21.2 20.9067L20.9883 22.3185L21.0824 25.8479L21.6079 23.1734L21.2 20.9067Z" fill="#E4751F" stroke="#E4751F" stroke-linecap="round" stroke-linejoin="round"/>
<path d="M21.6079 23.1734L21.0824 25.848L21.4589 26.1068L23.7491 24.3185L23.8275 22.5225L21.6079 23.1734Z" fill="#F6851B" stroke="#F6851B" stroke-linecap="round" stroke-linejoin="round"/>
<path d="M16.1804 22.5225L16.2432 24.3185L18.5334 26.1068L18.9098 25.848L18.3922 23.1734L16.1804 22.5225Z" fill="#F6851B" stroke="#F6851B" stroke-linecap="round" stroke-linejoin="round"/>
<path d="M21.647 28.5695L21.6706 27.8401L21.4745 27.6675H18.5176L18.3372 27.8401L18.3529 28.5695L15.8823 27.4009L16.7451 28.1068L18.4941 29.3224H21.498L23.2549 28.1068L24.1176 27.4009L21.647 28.5695Z" fill="#C0AD9E" stroke="#C0AD9E" stroke-linecap="round" stroke-linejoin="round"/>
<path d="M21.4588 26.1067L21.0824 25.8479H18.9098L18.5334 26.1067L18.3373 27.8401L18.5177 27.6675H21.4745L21.6706 27.8401L21.4588 26.1067Z" fill="#161616" stroke="#161616" stroke-linecap="round" stroke-linejoin="round"/>
<path d="M29.3334 16.9538L30 13.7538L29.004 10.7812L21.4589 16.3813L24.3608 18.8362L28.4628 20.0362L29.3726 18.9773L28.9804 18.695L29.6079 18.1224L29.1216 17.746L29.7491 17.2675L29.3334 16.9538Z" fill="#763D16" stroke="#763D16" stroke-linecap="round" stroke-linejoin="round"/>
<path d="M10 13.7538L10.6667 16.9538L10.2431 17.2675L10.8706 17.746L10.3922 18.1224L11.0196 18.695L10.6275 18.9773L11.5294 20.0362L15.6314 18.8362L18.5333 16.3813L10.9882 10.7812L10 13.7538Z" fill="#763D16" stroke="#763D16" stroke-linecap="round" stroke-linejoin="round"/>
<path d="M28.4627 20.0362L24.3608 18.8362L25.6078 20.7107L23.749 24.3185L26.1961 24.2872H29.8431L28.4627 20.0362Z" fill="#F6851B" stroke="#F6851B" stroke-linecap="round" stroke-linejoin="round"/>
<path d="M15.6313 18.8362L11.5294 20.0362L10.1647 24.2872H13.8039L16.2431 24.3185L14.3921 20.7107L15.6313 18.8362Z" fill="#F6851B" stroke="#F6851B" stroke-linecap="round" stroke-linejoin="round"/>
<path d="M21.1999 20.9067L21.4588 16.3812L22.6509 13.1577H17.3568L18.5333 16.3812L18.8078 20.9067L18.9019 22.3342L18.9098 25.8479H21.0823L21.098 22.3342L21.1999 20.9067Z" fill="#F6851B" stroke="#F6851B" stroke-linecap="round" stroke-linejoin="round"/>
</g>
<defs>
<clipPath id="clip0_1369_4103">
<rect width="20" height="20" fill="white" transform="translate(10 10)"/>
</clipPath>
</defs>
</svg>
