<svg width="180" height="21" viewBox="0 0 180 21" fill="none" xmlns="http://www.w3.org/2000/svg">
<g clip-path="url(#clip0_131_4299)">
<path d="M57.8702 19.8336V2.8286H61.0649L66.2562 10.8818L71.4476 2.8286H74.6422V19.8336H71.6472V7.65389L66.2229 15.6739H66.1231L60.7986 7.72045V19.8669H57.8702V19.8336ZM82.2629 20.0998C79.8669 20.0998 77.7038 18.7021 77.7038 16.1397V16.1065C77.7038 13.3444 79.8669 11.98 82.995 11.98C84.4259 11.98 85.4575 12.213 86.4559 12.5125V12.213C86.4559 10.3827 85.3244 9.41761 83.2612 9.41761C81.8303 9.41761 80.7654 9.71712 79.6006 10.2163L78.8353 7.92011C80.2329 7.28783 81.6306 6.8885 83.6605 6.8885C85.5907 6.8885 87.0216 7.38766 87.9201 8.31944C88.8519 9.25122 89.3178 10.6156 89.3178 12.2795V19.9001H86.4559V18.3028C85.5907 19.2679 84.2263 20.0998 82.2629 20.0998ZM83.0948 17.97C85.0249 17.97 86.5224 16.8386 86.5224 15.208V14.3427C85.757 14.0432 84.7587 13.8436 83.594 13.8436C81.6972 13.8436 80.5657 14.6422 80.5657 15.9734V16.0066C80.599 17.2712 81.6972 17.97 83.0948 17.97ZM96.9717 20.0665C94.8086 20.0665 93.2778 19.1348 93.2778 16.3061V9.55073H91.6472V7.02161H93.2778V3.49415H96.2063V7.02161H99.6672V9.55073H96.2063V15.8402C96.2063 16.9717 96.8053 17.4376 97.7704 17.4376C98.4359 17.4376 99.0016 17.3045 99.6006 17.005V19.401C98.9018 19.8336 98.1031 20.0665 96.9717 20.0665ZM102.629 19.8336V2.09648H105.557V8.985C106.389 7.787 107.587 6.75538 109.551 6.75538C112.446 6.75538 114.11 8.6855 114.11 11.6472V19.8336H111.181V12.5457C111.181 10.5491 110.183 9.41761 108.419 9.41761C106.722 9.41761 105.524 10.6156 105.524 12.6123V19.8669H102.629V19.8336ZM129.85 19.9667L123.927 2.8286H127.155L131.215 15.4409L135.408 2.79532H137.937L142.13 15.4409L146.19 2.8286H149.318L143.394 19.9667H140.799L136.606 7.75372L132.413 19.9667H129.85ZM153.977 20.0998C151.581 20.0998 149.418 18.7021 149.418 16.1397V16.1065C149.418 13.3444 151.581 11.98 154.709 11.98C156.14 11.98 157.171 12.213 158.17 12.5125V12.213C158.17 10.3827 157.038 9.41761 154.975 9.41761C153.544 9.41761 152.479 9.71712 151.314 10.2163L150.549 7.92011C151.947 7.28783 153.344 6.8885 155.374 6.8885C157.304 6.8885 158.735 7.38766 159.634 8.31944C160.566 9.25122 161.032 10.6156 161.032 12.2795V19.9001H158.17V18.3028C157.271 19.2679 155.94 20.0998 153.977 20.0998ZM154.775 17.97C156.705 17.97 158.203 16.8386 158.203 15.208V14.3427C157.438 14.0432 156.439 13.8436 155.275 13.8436C153.378 13.8436 152.246 14.6422 152.246 15.9734V16.0066C152.28 17.2712 153.378 17.97 154.775 17.97ZM164.659 19.8336V2.09648H167.587V19.8336H164.659ZM171.581 19.8336V2.09648H174.509V19.8336H171.581ZM184.193 20.1331C180.466 20.1331 177.604 17.4376 177.604 13.4775V13.4442C177.604 9.78367 180.2 6.75538 183.86 6.75538C187.953 6.75538 190.017 9.95006 190.017 13.6439C190.017 13.9101 189.983 14.1763 189.983 14.4759H180.566C180.865 16.5724 182.363 17.7371 184.26 17.7371C185.691 17.7371 186.722 17.2046 187.72 16.2063L189.451 17.7371C188.22 19.2013 186.556 20.1331 184.193 20.1331ZM180.499 12.5125H187.088C186.889 10.6156 185.79 9.15139 183.827 9.15139C182.03 9.15139 180.765 10.5491 180.499 12.5125ZM197.238 20.0665C195.075 20.0665 193.544 19.1348 193.544 16.3061V9.55073H191.913V7.02161H193.544V3.49415H196.473V7.02161H199.933V9.55073H196.473V15.8402C196.473 16.9717 197.072 17.4376 198.037 17.4376C198.702 17.4376 199.268 17.3045 199.867 17.005V19.401C199.168 19.8336 198.369 20.0665 197.238 20.0665ZM34.3427 8.48583C33.3777 7.52078 33.3777 5.99 34.3427 5.02494C35.3078 4.05988 36.8386 4.05988 37.8036 5.02494C38.7687 5.99 38.7687 7.52078 37.8036 8.48583C36.8386 9.45089 35.3078 9.45089 34.3427 8.48583ZM26.1564 16.7055C25.4575 16.0066 25.4575 14.8419 26.1564 14.1098C26.8552 13.411 28.0199 13.411 28.7521 14.1098C29.4509 14.8086 29.4509 15.9734 28.7521 16.7055C28.0199 17.4043 26.8552 17.4043 26.1564 16.7055ZM39.1015 12.3793C38.4026 11.6805 38.4026 10.5158 39.1015 9.78367C39.8003 9.08483 40.965 9.08483 41.6972 9.78367C42.396 10.4825 42.396 11.6472 41.6972 12.3793C40.965 13.1115 39.8003 13.1115 39.1015 12.3793ZM34.7754 16.7055C34.0765 16.0066 34.0765 14.8419 34.7754 14.1098C35.4742 13.411 36.6389 13.411 37.371 14.1098C38.0699 14.8086 38.0699 15.9734 37.371 16.7055C36.6389 17.4043 35.5075 17.4043 34.7754 16.7055ZM43.8602 16.2729C43.3943 15.807 43.3943 15.0083 43.8602 14.5424C44.3261 14.0765 45.1248 14.0765 45.5907 14.5424C46.0565 15.0083 46.0565 15.807 45.5907 16.2729C45.0915 16.7387 44.3261 16.7387 43.8602 16.2729ZM39.5341 20.599C39.0682 20.1331 39.0682 19.3344 39.5341 18.8685C40 18.4026 40.7986 18.4026 41.2645 18.8685C41.7304 19.3344 41.7304 20.1331 41.2645 20.599C40.7654 21.0649 40 21.0649 39.5341 20.599ZM30.0166 12.812C29.0516 11.8469 29.0516 10.3161 30.0166 9.35106C30.9817 8.386 32.5125 8.386 33.4775 9.35106C34.4426 10.3161 34.4426 11.8469 33.4775 12.812C32.5457 13.777 30.9817 13.777 30.0166 12.812ZM30.0166 4.19299C29.0516 3.22793 29.0516 1.69715 30.0166 0.732095C30.9817 -0.232964 32.5125 -0.232964 33.4775 0.732095C34.4426 1.69715 34.4426 3.22793 33.4775 4.19299C32.5457 5.12477 30.9817 5.12477 30.0166 4.19299ZM25.7238 8.48583C24.7587 7.52078 24.7587 5.99 25.7238 5.02494C26.6888 4.05988 28.2196 4.05988 29.1847 5.02494C30.1497 5.99 30.1497 7.52078 29.1847 8.48583C28.2196 9.45089 26.6556 9.45089 25.7238 8.48583ZM17.0382 8.48583C16.0732 7.52078 16.0732 5.99 17.0382 5.02494C18.0033 4.05988 19.5341 4.05988 20.4991 5.02494C21.4642 5.99 21.4642 7.52078 20.4991 8.48583C19.5341 9.45089 18.0033 9.45089 17.0382 8.48583ZM8.81861 16.7055C8.11978 16.0066 8.11978 14.8419 8.81861 14.1098C9.51745 13.411 10.6822 13.411 11.4143 14.1098C12.1131 14.8086 12.1131 15.9734 11.4143 16.7055C10.7155 17.4043 9.55072 17.4043 8.81861 16.7055ZM21.797 12.3793C21.0981 11.6805 21.0981 10.5158 21.797 9.78367C22.4958 9.08483 23.6605 9.08483 24.3927 9.78367C25.0915 10.4825 25.0915 11.6472 24.3927 12.3793C23.6605 13.1115 22.4958 13.1115 21.797 12.3793ZM17.4709 16.7055C16.772 16.0066 16.772 14.8419 17.4709 14.1098C18.1697 13.411 19.3344 13.411 20.0665 14.1098C20.7654 14.8086 20.7654 15.9734 20.0665 16.7055C19.3344 17.4043 18.1697 17.4043 17.4709 16.7055ZM0.632255 16.2729C0.166364 15.807 0.166364 15.0083 0.632255 14.5424C1.09814 14.0765 1.89681 14.0765 2.3627 14.5424C2.82859 15.0083 2.82859 15.807 2.3627 16.2729C1.86354 16.7387 1.09814 16.7387 0.632255 16.2729ZM4.95838 20.599C4.49249 20.1331 4.49249 19.3344 4.95838 18.8685C5.42427 18.4026 6.22294 18.4026 6.68883 18.8685C7.15472 19.3344 7.15472 20.1331 6.68883 20.599C6.18966 21.0649 5.42427 21.0649 4.95838 20.599ZM22.2296 20.599C21.7637 20.1331 21.7637 19.3344 22.2296 18.8685C22.6955 18.4026 23.4942 18.4026 23.96 18.8685C24.4259 19.3344 24.4259 20.1331 23.96 20.599C23.4609 21.0649 22.6955 21.0649 22.2296 20.599ZM4.52577 12.3793C3.82693 11.6805 3.82693 10.5158 4.52577 9.78367C5.2246 9.08483 6.38933 9.08483 7.12144 9.78367C7.82028 10.4825 7.82028 11.6472 7.12144 12.3793C6.38933 13.1115 5.2246 13.1115 4.52577 12.3793ZM12.7121 12.812C11.7471 11.8469 11.7471 10.3161 12.7121 9.35106C13.6772 8.386 15.208 8.386 16.173 9.35106C17.1381 10.3161 17.1381 11.8469 16.173 12.812C15.208 13.777 13.6772 13.777 12.7121 12.812ZM12.7121 4.19299C11.7471 3.22793 11.7471 1.69715 12.7121 0.732095C13.6772 -0.232964 15.208 -0.232964 16.173 0.732095C17.1381 1.69715 17.1381 3.22793 16.173 4.19299C15.208 5.12477 13.6772 5.12477 12.7121 4.19299ZM8.386 8.48583C7.42094 7.52078 7.42094 5.99 8.386 5.02494C9.35106 4.05988 10.8818 4.05988 11.8469 5.02494C12.812 5.99 12.812 7.52078 11.8469 8.48583C10.9151 9.45089 9.35106 9.45089 8.386 8.48583Z" fill="#CFD5DF"/>
</g>
<defs>
<clipPath id="clip0_131_4299">
<rect width="200" height="20.9651" fill="white"/>
</clipPath>
</defs>
</svg>
