<svg width="24" height="24" viewBox="0 0 24 24" fill="none" xmlns="http://www.w3.org/2000/svg">
<path d="M12.0001 5.5C14.7615 5.5 17.0001 7.73858 17.0001 10.5V12.7396C17.0001 13.2294 17.1798 13.7022 17.5052 14.0683L18.7809 15.5035C19.6408 16.4708 18.9541 18 17.6598 18H6.34031C5.04604 18 4.35933 16.4708 5.2192 15.5035L6.49486 14.0683C6.82028 13.7022 7.00004 13.2294 7.00004 12.7396L7.00006 10.5C7.00006 7.73858 9.23864 5.5 12.0001 5.5ZM12.0001 5.5V3M11 21H13" stroke="#9A9EAE" stroke-width="1.5" stroke-linecap="round" stroke-linejoin="round"/>
<path d="M17 10.75C19.0711 10.75 20.75 9.07107 20.75 7C20.75 4.92893 19.0711 3.25 17 3.25C14.9289 3.25 13.25 4.92893 13.25 7C13.25 9.07107 14.9289 10.75 17 10.75Z" fill="#FF1F47" stroke="white" stroke-width="1.5"/>
</svg>
