<svg width="44" height="45" viewBox="0 0 44 45" fill="none" xmlns="http://www.w3.org/2000/svg">
<rect y="0.5" width="44" height="44" rx="12" fill="#31D0C7" fill-opacity="0.2"/>
<path d="M14.4999 28.7499C14.3099 28.7499 14.1199 28.6799 13.9699 28.5299C13.6799 28.2399 13.6799 27.7599 13.9699 27.4699L27.9699 13.4699C28.2599 13.1799 28.7399 13.1799 29.0299 13.4699C29.3199 13.7599 29.3199 14.2399 29.0299 14.5299L15.0299 28.5299C14.8799 28.6799 14.6899 28.7499 14.4999 28.7499Z" fill="#31D0C7"/>
<path d="M24.77 28.75H14.5C14.09 28.75 13.75 28.41 13.75 28V17.73C13.75 17.32 14.09 16.98 14.5 16.98C14.91 16.98 15.25 17.32 15.25 17.73V27.25H24.77C25.18 27.25 25.52 27.59 25.52 28C25.52 28.41 25.18 28.75 24.77 28.75Z" fill="#31D0C7"/>
<path d="M30 33.25H13C12.59 33.25 12.25 32.91 12.25 32.5C12.25 32.09 12.59 31.75 13 31.75H30C30.41 31.75 30.75 32.09 30.75 32.5C30.75 32.91 30.41 33.25 30 33.25Z" fill="#31D0C7"/>
</svg>
