<svg width="44" height="45" viewBox="0 0 44 45" fill="none" xmlns="http://www.w3.org/2000/svg">
<rect y="0.5" width="44" height="44" rx="12" fill="#F3BA2F" fill-opacity="0.2"/>
<path d="M13.5 33.25H30.5C30.91 33.25 31.25 32.91 31.25 32.5C31.25 32.09 30.91 31.75 30.5 31.75H13.5C13.09 31.75 12.75 32.09 12.75 32.5C12.75 32.91 13.09 33.25 13.5 33.25Z" fill="#F3BA2F"/>
<path d="M15.0001 28.7499C15.1901 28.7499 15.3801 28.6799 15.5301 28.5299L29.5301 14.5299C29.8201 14.2399 29.8201 13.7599 29.5301 13.4699C29.2401 13.1799 28.7601 13.1799 28.4701 13.4699L14.4701 27.4699C14.1801 27.7599 14.1801 28.2399 14.4701 28.5299C14.6201 28.6799 14.8101 28.7499 15.0001 28.7499Z" fill="#F3BA2F"/>
<path d="M29 25.02C29.41 25.02 29.75 24.68 29.75 24.27V14C29.75 13.59 29.41 13.25 29 13.25H18.73C18.32 13.25 17.98 13.59 17.98 14C17.98 14.41 18.32 14.75 18.73 14.75H28.25V24.27C28.25 24.68 28.59 25.02 29 25.02Z" fill="#F3BA2F"/>
</svg>
