<svg width="200" height="40" viewBox="0 0 200 40" fill="none" xmlns="http://www.w3.org/2000/svg">
<g clip-path="url(#clip0_131_4221)">
<path d="M12.0792 16.8083L19.86 9.04061L27.645 16.8124L32.1724 12.2925L19.86 0L7.55176 12.2883L12.0792 16.8083Z" fill="#CFD5DF"/>
<path d="M8.88185 19.9993L4.35449 15.4794L-0.173084 19.9995L4.35427 24.5194L8.88185 19.9993Z" fill="#CFD5DF"/>
<path d="M12.0792 23.1917L19.8601 30.9594L27.6447 23.1879L32.1747 27.7053L32.1725 27.7079L19.8601 40L7.5515 27.712L7.54517 27.7056L12.0792 23.1917Z" fill="#CFD5DF"/>
<path d="M35.366 24.5216L39.8936 20.0015L35.3662 15.4816L30.8386 20.0017L35.366 24.5216Z" fill="#CFD5DF"/>
<path d="M24.4524 19.9977H24.4543L19.8601 15.411L16.4649 18.8006H16.4646L16.0747 19.1901L15.27 19.9936L15.2637 19.9999L15.27 20.0065L19.8601 24.589L24.4543 20.0024L24.4565 19.9999L24.4524 19.9977Z" fill="#CFD5DF"/>
<path d="M46.9514 9.69238H56.7983C59.2423 9.69238 61.0903 10.3186 62.3428 11.5709C63.3121 12.5408 63.7966 13.7429 63.7966 15.1769V15.2376C63.7966 15.8435 63.7216 16.379 63.5707 16.8434C63.42 17.3085 63.2188 17.7271 62.9672 18.1008C62.7163 18.4749 62.4245 18.8031 62.0929 19.0856C61.7609 19.3686 61.4043 19.6113 61.0223 19.8128C62.2508 20.2779 63.2178 20.9088 63.9229 21.7068C64.6276 22.5052 64.9804 23.6112 64.9804 25.025V25.0854C64.9804 26.0553 64.7937 26.9035 64.42 27.6311C64.0463 28.3581 63.5109 28.9643 62.8137 29.4493C62.1166 29.9342 61.2783 30.2975 60.2986 30.5402C59.3189 30.7825 58.2331 30.9035 57.0417 30.9035H46.9514V9.69238ZM55.8139 18.2676C56.8461 18.2676 57.6657 18.0913 58.2724 17.7375C58.8793 17.384 59.1828 16.8131 59.1828 16.0255V15.9648C59.1828 15.2581 58.9195 14.7179 58.3936 14.3438C57.8673 13.9701 57.1085 13.783 56.1174 13.783H51.5038V18.2676H55.8139ZM57.0585 26.8132C58.0904 26.8132 58.8993 26.6268 59.4866 26.2527C60.0733 25.879 60.3669 25.298 60.3669 24.51V24.4497C60.3669 23.7427 60.0935 23.1822 59.5473 22.7677C59.0008 22.3542 58.1208 22.1469 56.9066 22.1469H51.5038V26.8135H57.0585V26.8132Z" fill="#CFD5DF"/>
<path d="M70.845 9.69238H75.5196V30.9041H70.845V9.69238Z" fill="#CFD5DF"/>
<path d="M82.5994 9.69238H86.9088L96.8646 22.7529V9.69238H101.478V30.9041H97.5022L87.2126 17.4197V30.9041H82.5994V9.69238Z" fill="#CFD5DF"/>
<path d="M115.63 9.54102H119.939L129.045 30.9041H124.159L122.216 26.1468H113.232L111.289 30.9041H106.523L115.63 9.54102ZM120.547 22.0252L117.724 15.1468L114.901 22.0252H120.547Z" fill="#CFD5DF"/>
<path d="M134.091 9.69238H138.402L148.357 22.7529V9.69238H152.97V30.9041H148.994L138.705 17.4197V30.9041H134.091V9.69238Z" fill="#CFD5DF"/>
<path d="M169.793 31.2674C168.234 31.2674 166.788 30.9844 165.452 30.4192C164.116 29.854 162.963 29.0809 161.992 28.1009C161.021 27.1212 160.261 25.9646 159.716 24.6314C159.169 23.2978 158.896 21.8736 158.896 20.3584V20.2981C158.896 18.7829 159.169 17.3641 159.716 16.0406C160.262 14.7175 161.021 13.5559 161.992 12.5559C162.963 11.556 164.127 10.7678 165.482 10.1922C166.838 9.61655 168.336 9.32874 169.975 9.32874C170.966 9.32874 171.871 9.40993 172.691 9.57105C173.51 9.73312 174.253 9.95491 174.922 10.2377C175.59 10.5207 176.206 10.8641 176.774 11.2679C177.339 11.6723 177.866 12.1165 178.352 12.6014L175.378 16.0255C174.547 15.2783 173.703 14.6919 172.843 14.268C171.982 13.844 171.017 13.6317 169.944 13.6317C169.054 13.6317 168.229 13.8035 167.471 14.147C166.712 14.4904 166.059 14.9649 165.513 15.5708C164.967 16.1768 164.542 16.8791 164.238 17.6768C163.935 18.4752 163.783 19.3285 163.783 20.2374V20.2978C163.783 21.2067 163.935 22.0657 164.238 22.8732C164.542 23.6817 164.961 24.3884 165.498 24.9944C166.033 25.6003 166.681 26.0805 167.44 26.434C168.199 26.7879 169.034 26.9642 169.944 26.9642C171.159 26.9642 172.185 26.7421 173.024 26.2976C173.864 25.8537 174.699 25.2474 175.529 24.4794L178.503 27.4795C177.957 28.0655 177.389 28.5909 176.804 29.055C176.217 29.52 175.574 29.9187 174.876 30.2524C174.178 30.5853 173.414 30.8384 172.585 31.0096C171.755 31.1812 170.824 31.2674 169.793 31.2674Z" fill="#CFD5DF"/>
<path d="M184.004 9.69238H200V13.844H188.618V18.1469H198.634V22.2982H188.618V26.7528H200.152V30.9041H184.004V9.69238Z" fill="#CFD5DF"/>
</g>
<defs>
<clipPath id="clip0_131_4221">
<rect width="200" height="40" fill="white"/>
</clipPath>
</defs>
</svg>
