<svg width="200" height="54" viewBox="0 0 200 54" fill="none" xmlns="http://www.w3.org/2000/svg">
<path d="M74.5339 10.8855H63.5033C62.7484 10.8855 62.1065 11.4339 61.9887 12.179L57.5274 40.4645C57.4387 41.0226 57.871 41.5258 58.4371 41.5258H63.7033C64.4581 41.5258 65.1 40.9774 65.2178 40.2307L66.421 32.6016C66.5371 31.8549 67.1807 31.3065 67.9339 31.3065H71.4258C78.692 31.3065 82.8855 27.7903 83.9807 20.8226C84.4742 17.7742 84.0016 15.379 82.5742 13.7016C81.0065 11.8597 78.2258 10.8855 74.5339 10.8855ZM75.8065 21.2161C75.2033 25.1742 72.1791 25.1742 69.2549 25.1742H67.5903L68.7581 17.7823C68.8274 17.3355 69.2145 17.0065 69.6662 17.0065H70.4291C72.421 17.0065 74.3 17.0065 75.271 18.1419C75.85 18.8194 76.0274 19.8258 75.8065 21.2161Z" fill="#CFD5DF"/>
<path d="M107.507 21.0887H102.224C101.774 21.0887 101.386 21.4177 101.316 21.8645L101.082 23.3419L100.713 22.8064C99.5694 21.1468 97.0194 20.5919 94.4743 20.5919C88.6372 20.5919 83.6517 25.0129 82.6807 31.2145C82.1759 34.308 82.8936 37.2661 84.6485 39.329C86.2581 41.2258 88.5614 42.0161 91.3017 42.0161C96.0049 42.0161 98.613 38.9919 98.613 38.9919L98.3775 40.4597C98.2888 41.021 98.721 41.5242 99.284 41.5242H104.042C104.798 41.5242 105.437 40.9758 105.557 40.229L108.411 22.15C108.502 21.5935 108.071 21.0887 107.507 21.0887ZM100.144 31.3693C99.634 34.3871 97.2388 36.4129 94.184 36.4129C92.6501 36.4129 91.4243 35.921 90.6372 34.9887C89.8565 34.0629 89.5598 32.7451 89.8081 31.2774C90.2839 28.2855 92.7194 26.1935 95.7275 26.1935C97.2275 26.1935 98.4469 26.6919 99.2501 27.6322C100.055 28.5822 100.374 29.908 100.144 31.3693Z" fill="#CFD5DF"/>
<path d="M135.639 21.0887H130.331C129.824 21.0887 129.348 21.3404 129.061 21.7613L121.74 32.5452L118.637 22.1823C118.442 21.5339 117.844 21.0887 117.166 21.0887H111.95C111.316 21.0887 110.876 21.7081 111.077 22.3049L116.924 39.4629L111.427 47.2226C110.995 47.8339 111.431 48.6742 112.177 48.6742H117.479C117.982 48.6742 118.453 48.4291 118.739 48.0162L136.394 22.5323C136.816 21.9226 136.382 21.0887 135.639 21.0887Z" fill="#CFD5DF"/>
<path d="M153.213 10.8855H142.181C141.427 10.8855 140.785 11.4339 140.668 12.179L136.206 40.4645C136.118 41.0226 136.55 41.5258 137.113 41.5258H142.774C143.3 41.5258 143.75 41.1419 143.832 40.6194L145.098 32.6016C145.214 31.8549 145.858 31.3065 146.611 31.3065H150.102C157.369 31.3065 161.561 27.7903 162.658 20.8226C163.153 17.7742 162.677 15.379 161.25 13.7016C159.684 11.8597 156.905 10.8855 153.213 10.8855ZM154.485 21.2161C153.884 25.1742 150.86 25.1742 147.934 25.1742H146.271L147.44 17.7823C147.51 17.3355 147.893 17.0065 148.347 17.0065H149.11C151.1 17.0065 152.981 17.0065 153.952 18.1419C154.531 18.8194 154.706 19.8258 154.485 21.2161Z" fill="#CFD5DF"/>
<path d="M186.184 21.0887H180.905C180.452 21.0887 180.066 21.4177 179.998 21.8645L179.765 23.3419L179.394 22.8064C178.25 21.1468 175.702 20.5919 173.157 20.5919C167.319 20.5919 162.336 25.0129 161.365 31.2145C160.861 34.308 161.576 37.2661 163.331 39.329C164.944 41.2258 167.244 42.0161 169.984 42.0161C174.687 42.0161 177.295 38.9919 177.295 38.9919L177.06 40.4597C176.971 41.021 177.403 41.5242 177.969 41.5242H182.726C183.479 41.5242 184.121 40.9758 184.239 40.229L187.095 22.15C187.182 21.5935 186.75 21.0887 186.184 21.0887ZM178.821 31.3693C178.315 34.3871 175.916 36.4129 172.861 36.4129C171.331 36.4129 170.102 35.921 169.315 34.9887C168.534 34.0629 168.24 32.7451 168.486 31.2774C168.965 28.2855 171.397 26.1935 174.405 26.1935C175.905 26.1935 177.124 26.6919 177.928 27.6322C178.736 28.5822 179.055 29.908 178.821 31.3693Z" fill="#CFD5DF"/>
<path d="M192.411 11.6613L187.884 40.4646C187.795 41.0226 188.227 41.5259 188.79 41.5259H193.342C194.098 41.5259 194.74 40.9775 194.856 40.2307L199.321 11.9468C199.41 11.3887 198.977 10.8839 198.415 10.8839H193.318C192.868 10.8855 192.481 11.2146 192.411 11.6613Z" fill="#CFD5DF"/>
<path d="M11.7192 47.0226L12.5628 41.6645L10.6838 41.621H1.71118L7.94667 2.08387C7.96602 1.96451 8.02892 1.85322 8.12086 1.77419C8.21279 1.69516 8.33054 1.65161 8.45312 1.65161H23.5821C28.6047 1.65161 32.0709 2.69677 33.8805 4.75968C34.7289 5.72742 35.2692 6.73871 35.5305 7.85161C35.8047 9.01935 35.8096 10.4145 35.5418 12.1161L35.5225 12.2403V13.3306L36.3709 13.8113C37.0854 14.1903 37.6531 14.6242 38.0886 15.121C38.8144 15.9484 39.2838 17 39.4821 18.2468C39.687 19.529 39.6192 21.0548 39.2838 22.7823C38.8967 24.7694 38.2709 26.5 37.4257 27.9161C36.6483 29.221 35.658 30.3032 34.4821 31.1419C33.3596 31.9387 32.0257 32.5435 30.5176 32.9306C29.0563 33.3113 27.3902 33.5032 25.5628 33.5032H24.3854C23.5434 33.5032 22.7257 33.8064 22.0838 34.35C21.4402 34.9048 21.0144 35.6629 20.8838 36.4919L20.7951 36.9742L19.3047 46.4177L19.237 46.7645C19.2192 46.8742 19.1886 46.929 19.1434 46.9661C19.1031 47 19.0451 47.0226 18.9886 47.0226H11.7192Z" fill="#A8B2C5"/>
<path d="M37.1742 12.3661C37.1291 12.6548 37.0774 12.95 37.0194 13.2532C35.0242 23.4967 28.1984 27.0354 19.4807 27.0354H15.042C13.9758 27.0354 13.0774 27.8096 12.9113 28.8612L10.6387 43.2742L9.99518 47.3596C9.88712 48.05 10.4194 48.6725 11.1161 48.6725H18.9887C19.921 48.6725 20.7129 47.9951 20.8597 47.0758L20.9371 46.6758L22.4194 37.2693L22.5145 36.7532C22.6597 35.8306 23.4532 35.1532 24.3855 35.1532H25.5629C33.1903 35.1532 39.1613 32.0564 40.9065 23.0951C41.6355 19.3516 41.2581 16.2258 39.3291 14.0274C38.7452 13.3645 38.021 12.8145 37.1742 12.3661Z" fill="#CFD5DF"/>
<path d="M35.0872 11.5339C34.7823 11.4452 34.4678 11.3645 34.1453 11.2919C33.8211 11.221 33.4888 11.1581 33.1469 11.1032C31.9501 10.9097 30.6388 10.8177 29.234 10.8177H17.3759C17.084 10.8177 16.8065 10.8839 16.5582 11.0032C16.0114 11.2661 15.6049 11.7839 15.5065 12.4177L12.984 28.3952L12.9114 28.8613C13.0775 27.8097 13.9759 27.0355 15.042 27.0355H19.4807C28.1985 27.0355 35.0243 23.4952 37.0194 13.2532C37.0791 12.95 37.1291 12.6548 37.1743 12.3661C36.6694 12.0984 36.1227 11.8694 35.534 11.6742C35.3888 11.6258 35.2388 11.579 35.0872 11.5339Z" fill="#A8B2C5"/>
<path d="M15.5064 12.4177C15.6048 11.7839 16.0113 11.2661 16.558 11.0048C16.808 10.8855 17.0839 10.8194 17.3758 10.8194H29.2339C30.6387 10.8194 31.95 10.9113 33.1468 11.1048C33.4887 11.1597 33.8209 11.2226 34.1451 11.2935C34.4677 11.3661 34.7822 11.4468 35.0871 11.5355C35.2387 11.5806 35.3887 11.6274 35.5355 11.6742C36.1242 11.8694 36.6709 12.1 37.1758 12.3661C37.7693 8.58065 37.1709 6.00323 35.1242 3.66935C32.8677 1.1 28.7951 0 23.5839 0H8.45482C7.3903 0 6.48224 0.774194 6.31772 1.82742L0.016111 41.771C-0.108083 42.5613 0.501595 43.2742 1.29837 43.2742H10.6387L12.9839 28.3952L15.5064 12.4177Z" fill="#CFD5DF"/>
</svg>
