<svg width="200" height="38" viewBox="0 0 200 38" fill="none" xmlns="http://www.w3.org/2000/svg">
<g clip-path="url(#clip0_131_4240)">
<path d="M176.374 18.8274C175.344 18.1262 174.221 17.6588 173.097 17.0511C172.395 16.6771 171.646 16.3031 171.037 15.7889C170.007 14.9474 170.195 13.2645 171.318 12.5166C172.863 11.4882 175.438 12.0491 175.719 14.1527C175.719 14.1995 175.766 14.2462 175.813 14.2462H178.153C178.2 14.2462 178.247 14.1995 178.247 14.1527C178.106 12.7036 177.545 11.4882 176.515 10.6935C175.532 9.94551 174.408 9.57153 173.191 9.57153C167.011 9.57153 166.449 16.1161 169.773 18.173C170.148 18.4067 173.425 20.0429 174.595 20.7908C175.766 21.492 176.093 22.8009 175.625 23.8294C175.157 24.7643 173.987 25.4188 172.816 25.3253C171.505 25.2318 170.522 24.5306 170.148 23.4554C170.101 23.2684 170.054 22.8944 170.054 22.7074C170.054 22.6607 170.007 22.6139 169.961 22.6139H167.433C167.386 22.6139 167.339 22.6607 167.339 22.7074C167.339 24.5306 167.807 25.559 169.024 26.4939C170.195 27.3821 171.459 27.7561 172.816 27.7561C176.281 27.7561 178.06 25.7927 178.434 23.7826C178.715 21.8192 178.153 20.0429 176.374 18.8274Z" fill="#CFD5DF"/>
<path d="M66.0295 9.94556H64.9059H63.6887C63.6419 9.94556 63.5951 9.9923 63.5951 9.9923L61.4884 16.8641C61.4415 16.9576 61.3479 16.9576 61.3011 16.8641L59.1944 9.9923C59.1944 9.94555 59.1476 9.94556 59.1007 9.94556H57.8835H56.76H55.2619C55.215 9.94556 55.1682 9.9923 55.1682 10.039V27.5692C55.1682 27.6159 55.215 27.6627 55.2619 27.6627H57.7899C57.8367 27.6627 57.8835 27.6159 57.8835 27.5692V14.2463C57.8835 14.1528 58.024 14.106 58.0708 14.1995L60.1775 21.1181L60.318 21.5856C60.318 21.6323 60.3648 21.6323 60.4116 21.6323H62.3779C62.4247 21.6323 62.4715 21.5856 62.4715 21.5856L62.6119 21.1181L64.7187 14.1995C64.7655 14.106 64.9059 14.106 64.9059 14.2463V27.5692C64.9059 27.6159 64.9527 27.6627 64.9995 27.6627H67.5276C67.5744 27.6627 67.6212 27.6159 67.6212 27.5692V10.039C67.6212 9.9923 67.5744 9.94556 67.5276 9.94556H66.0295Z" fill="#CFD5DF"/>
<path d="M137.47 9.94556C137.424 9.94556 137.377 9.9923 137.377 9.9923L135.27 16.8641C135.223 16.9576 135.13 16.9576 135.083 16.8641L132.976 9.9923C132.976 9.94555 132.929 9.94556 132.882 9.94556H128.997C128.95 9.94556 128.903 9.9923 128.903 10.039V27.5692C128.903 27.6159 128.95 27.6627 128.997 27.6627H131.525C131.572 27.6627 131.618 27.6159 131.618 27.5692V14.2463C131.618 14.1528 131.759 14.106 131.806 14.1995L133.912 21.1181L134.053 21.5856C134.053 21.6323 134.1 21.6323 134.146 21.6323H136.113C136.16 21.6323 136.206 21.5856 136.206 21.5856L136.347 21.1181L138.454 14.1995C138.5 14.106 138.641 14.106 138.641 14.2463V27.5692C138.641 27.6159 138.688 27.6627 138.734 27.6627H141.262C141.309 27.6627 141.356 27.6159 141.356 27.5692V10.039C141.356 9.9923 141.309 9.94556 141.262 9.94556H137.47Z" fill="#CFD5DF"/>
<path d="M104.699 9.94556H99.9709H97.4428H92.6676C92.6208 9.94556 92.574 9.9923 92.574 10.039V12.2362C92.574 12.2829 92.6208 12.3296 92.6676 12.3296H97.3024V27.5692C97.3024 27.6159 97.3492 27.6627 97.396 27.6627H99.9241C99.9709 27.6627 100.018 27.6159 100.018 27.5692V12.3296H104.652C104.699 12.3296 104.746 12.2829 104.746 12.2362V10.039C104.793 9.9923 104.746 9.94556 104.699 9.94556Z" fill="#CFD5DF"/>
<path d="M119.68 27.6627H121.974C122.021 27.6627 122.068 27.6159 122.068 27.5224L117.293 9.94555C117.293 9.89881 117.246 9.8988 117.199 9.8988H116.31H114.765H113.875C113.828 9.8988 113.782 9.94555 113.782 9.94555L109.006 27.5224C109.006 27.5692 109.053 27.6627 109.1 27.6627H111.394C111.441 27.6627 111.488 27.6159 111.488 27.6159L112.892 22.4737C112.892 22.427 112.939 22.427 112.986 22.427H118.089C118.135 22.427 118.182 22.4737 118.182 22.4737L119.587 27.6159C119.587 27.6159 119.634 27.6627 119.68 27.6627ZM113.594 19.9027L115.467 13.0309C115.514 12.9374 115.607 12.9374 115.654 13.0309L117.527 19.9027C117.527 19.9494 117.48 20.0429 117.433 20.0429H113.735C113.641 20.0429 113.594 19.9494 113.594 19.9027Z" fill="#CFD5DF"/>
<path d="M159.099 27.6627H161.393C161.44 27.6627 161.487 27.6159 161.487 27.5224L156.712 9.94555C156.712 9.89881 156.665 9.8988 156.618 9.8988H155.729H154.184H153.294C153.247 9.8988 153.2 9.94555 153.2 9.94555L148.425 27.5224C148.425 27.5692 148.472 27.6627 148.519 27.6627H150.813C150.86 27.6627 150.907 27.6159 150.907 27.6159L152.311 22.4737C152.311 22.427 152.358 22.427 152.405 22.427H157.508C157.554 22.427 157.601 22.4737 157.601 22.4737L159.006 27.6159C159.006 27.6159 159.052 27.6627 159.099 27.6627ZM153.013 19.9027L154.886 13.0309C154.933 12.9374 155.026 12.9374 155.073 13.0309L156.946 19.9027C156.946 19.9494 156.899 20.0429 156.852 20.0429H153.154C153.06 20.0429 153.013 19.9494 153.013 19.9027Z" fill="#CFD5DF"/>
<path d="M77.9206 25.0448V19.6222C77.9206 19.5754 77.9675 19.5287 78.0143 19.5287H84.8026C84.8494 19.5287 84.8962 19.4819 84.8962 19.4352V17.2381C84.8962 17.1913 84.8494 17.1446 84.8026 17.1446H78.0143C77.9675 17.1446 77.9206 17.0978 77.9206 17.0511V12.4231C77.9206 12.3764 77.9675 12.3296 78.0143 12.3296H85.6921C85.7389 12.3296 85.7857 12.2829 85.7857 12.2362V10.039C85.7857 9.9923 85.7389 9.94556 85.6921 9.94556H77.9206H75.299C75.2521 9.94556 75.2053 9.9923 75.2053 10.039V12.3296V17.1913V19.5754V25.1851V27.5692C75.2053 27.6159 75.2521 27.6627 75.299 27.6627H77.9206H86.0198C86.0666 27.6627 86.1134 27.6159 86.1134 27.5692V25.2786C86.1134 25.2318 86.0666 25.1851 86.0198 25.1851H77.9675C77.9675 25.1383 77.9206 25.0916 77.9206 25.0448Z" fill="#CFD5DF"/>
<path d="M199.595 27.4757L190.794 18.4068C190.747 18.36 190.747 18.3133 190.794 18.2665L198.706 10.039C198.752 9.9923 198.706 9.8988 198.659 9.8988H195.428C195.382 9.8988 195.382 9.89881 195.382 9.94555L188.64 16.9576C188.593 17.0043 188.5 16.9576 188.5 16.9109V10.0858C188.5 10.039 188.453 9.9923 188.406 9.9923H185.831C185.784 9.9923 185.738 10.039 185.738 10.0858V27.6159C185.738 27.6627 185.784 27.7094 185.831 27.7094H188.359C188.406 27.7094 188.453 27.6627 188.453 27.6159V19.9027C188.453 19.8092 188.547 19.7624 188.593 19.8559L196.177 27.7094L196.224 27.7561H199.455C199.595 27.6627 199.642 27.5224 199.595 27.4757Z" fill="#CFD5DF"/>
<path d="M37.7997 0.502686L22.4441 11.9089L25.2999 5.17738L37.7997 0.502686Z" fill="#CFD5DF" stroke="#CFD5DF" stroke-linecap="round" stroke-linejoin="round"/>
<path d="M2.31323 0.502686L17.5752 12.0024L14.8599 5.17738L2.31323 0.502686Z" fill="#CFD5DF" stroke="#CFD5DF" stroke-linecap="round" stroke-linejoin="round"/>
<path d="M32.2753 26.9148L28.1555 33.1789L36.9569 35.6097L39.4381 27.055L32.2753 26.9148Z" fill="#A8B2C5" stroke="#CFD5DF" stroke-linecap="round" stroke-linejoin="round"/>
<path d="M0.721436 27.055L3.20268 35.6097L11.9572 33.1789L7.88426 26.9148L0.721436 27.055Z" fill="#A8B2C5" stroke="#CFD5DF" stroke-linecap="round" stroke-linejoin="round"/>
<path d="M11.4891 16.3499L9.05469 20.0429L17.7156 20.4169L17.4347 11.0675L11.4891 16.3499Z" fill="#CFD5DF" stroke="#CFD5DF" stroke-linecap="round" stroke-linejoin="round"/>
<path d="M28.6706 16.3499L22.6314 10.974L22.4441 20.4169L31.105 20.0429L28.6706 16.3499Z" fill="#CFD5DF" stroke="#CFD5DF" stroke-linecap="round" stroke-linejoin="round"/>
<path d="M11.9573 33.1788L17.2007 30.6545L12.6595 27.1017L11.9573 33.1788Z" fill="#CFD5DF" stroke="#CFD5DF" stroke-linecap="round" stroke-linejoin="round"/>
<path d="M22.959 30.6545L28.1555 33.1788L27.4533 27.1017L22.959 30.6545Z" fill="#CFD5DF" stroke="#CFD5DF" stroke-linecap="round" stroke-linejoin="round"/>
<path d="M28.1555 33.1789L22.959 30.6545L23.3803 34.0203L23.3335 35.4695L28.1555 33.1789Z" fill="#CFD5DF" stroke="#CFD5DF" stroke-linecap="round" stroke-linejoin="round"/>
<path d="M11.9573 33.1789L16.8261 35.4695L16.7793 34.0203L17.2007 30.6545L11.9573 33.1789Z" fill="#CFD5DF" stroke="#CFD5DF" stroke-linecap="round" stroke-linejoin="round"/>
<path d="M16.9198 24.8579L12.5659 23.5958L15.6089 22.1934L16.9198 24.8579Z" fill="#CFD5DF" stroke="#CFD5DF" stroke-linecap="round" stroke-linejoin="round"/>
<path d="M23.24 24.8579L24.504 22.1934L27.5939 23.5958L23.24 24.8579Z" fill="#CFD5DF" stroke="#CFD5DF" stroke-linecap="round" stroke-linejoin="round"/>
<path d="M11.9573 33.1789L12.7063 26.9148L7.88428 27.055L11.9573 33.1789Z" fill="#CFD5DF" stroke="#CFD5DF" stroke-linecap="round" stroke-linejoin="round"/>
<path d="M27.4534 26.9148L28.1556 33.1789L32.2754 27.055L27.4534 26.9148Z" fill="#CFD5DF" stroke="#CFD5DF" stroke-linecap="round" stroke-linejoin="round"/>
<path d="M31.105 20.043L22.4441 20.4169L23.24 24.8579L24.504 22.1933L27.5938 23.5957L31.105 20.043Z" fill="#CFD5DF" stroke="#CFD5DF" stroke-linecap="round" stroke-linejoin="round"/>
<path d="M12.5659 23.5957L15.6089 22.1933L16.9197 24.8579L17.7156 20.4169L9.05469 20.043L12.5659 23.5957Z" fill="#CFD5DF" stroke="#CFD5DF" stroke-linecap="round" stroke-linejoin="round"/>
<path d="M9.05469 20.043L12.6595 27.1018L12.5659 23.5957L9.05469 20.043Z" fill="#CFD5DF" stroke="#CFD5DF" stroke-linecap="round" stroke-linejoin="round"/>
<path d="M27.5938 23.5957L27.4534 27.1018L31.105 20.043L27.5938 23.5957Z" fill="#CFD5DF" stroke="#CFD5DF" stroke-linecap="round" stroke-linejoin="round"/>
<path d="M17.7155 20.417L16.9197 24.858L17.9028 30.1404L18.1369 23.1751L17.7155 20.417Z" fill="#CFD5DF" stroke="#CFD5DF" stroke-linecap="round" stroke-linejoin="round"/>
<path d="M22.444 20.417L22.0227 23.1751L22.21 30.1404L23.2399 24.858L22.444 20.417Z" fill="#CFD5DF" stroke="#CFD5DF" stroke-linecap="round" stroke-linejoin="round"/>
<path d="M23.2399 24.8579L22.21 30.1403L22.959 30.6545L27.4533 27.1017L27.5938 23.5957L23.2399 24.8579Z" fill="#CFD5DF" stroke="#A8B2C5" stroke-linecap="round" stroke-linejoin="round"/>
<path d="M12.5659 23.5957L12.6595 27.1017L17.2007 30.6545L17.9029 30.1403L16.9198 24.8579L12.5659 23.5957Z" fill="#CFD5DF" stroke="#A8B2C5" stroke-linecap="round" stroke-linejoin="round"/>
<path d="M23.3335 35.4694L23.3803 34.0203L22.959 33.693H17.1538L16.7793 34.0203L16.8261 35.4694L11.9573 33.1788L13.6426 34.5812L17.107 36.9653H23.0058L26.4702 34.5812L28.1556 33.1788L23.3335 35.4694Z" fill="#CFD5DF" stroke="#CFD5DF" stroke-linecap="round" stroke-linejoin="round"/>
<path d="M22.959 30.6545L22.2099 30.1403H17.9029L17.2006 30.6545L16.7793 34.0203L17.1538 33.693H22.959L23.3803 34.0203L22.959 30.6545Z" fill="#CFD5DF" stroke="#CFD5DF" stroke-linecap="round" stroke-linejoin="round"/>
<path d="M38.455 12.6569L39.7659 6.34606L37.7996 0.502686L22.959 11.535L28.6705 16.3499L36.7228 18.6873L38.5018 16.6304L37.7528 16.0694L38.97 14.9475L38.0337 14.1996L39.2509 13.2646L38.455 12.6569Z" fill="#A8B2C5" stroke="#CFD5DF" stroke-linecap="round" stroke-linejoin="round"/>
<path d="M0.393799 6.34606L1.70464 12.6569L0.861957 13.2646L2.07917 14.1996L1.14285 14.9475L2.40688 16.0694L1.61101 16.6304L3.39001 18.6873L11.4892 16.3499L17.2007 11.535L2.31325 0.502686L0.393799 6.34606Z" fill="#A8B2C5" stroke="#CFD5DF" stroke-linecap="round" stroke-linejoin="round"/>
<path d="M36.7229 18.6873L28.6706 16.35L31.105 20.043L27.4534 27.1018L32.2754 27.055H39.4382L36.7229 18.6873Z" fill="#FAFAFA" stroke="#A8B2C5" stroke-linecap="round" stroke-linejoin="round"/>
<path d="M11.4891 16.3499L3.38994 18.6872L0.721436 27.0549H7.88426L12.6595 27.1017L9.05466 20.0429L11.4891 16.3499Z" fill="#FAFAFA" stroke="#A8B2C5" stroke-linecap="round" stroke-linejoin="round"/>
<path d="M22.444 20.4169L22.959 11.535L25.2998 5.17737H14.8599L17.2007 11.535L17.7156 20.4169L17.9029 23.2217V30.1403H22.2099V23.2217L22.444 20.4169Z" fill="#CFD5DF"/>
</g>
<defs>
<clipPath id="clip0_131_4240">
<rect width="200" height="37.5904" fill="white"/>
</clipPath>
</defs>
</svg>
