<svg width="20" height="20" viewBox="0 0 20 20" fill="none" xmlns="http://www.w3.org/2000/svg">
<path d="M13 10C13 11.6569 11.6569 13 10 13C8.34315 13 7 11.6569 7 10C7 8.34315 8.34315 7 10 7C11.6569 7 13 8.34315 13 10Z" fill="#6A6D7D"/>
<path d="M3 10H1M10 3V1M19 10H17M10 19V17M14.9496 14.9498L16.3638 16.364M3.63602 3.63608L5.05023 5.05029M14.9496 5.0502L16.3638 3.63599M3.63602 16.3639L5.05023 14.9497M13 10C13 11.6569 11.6569 13 10 13C8.34315 13 7 11.6569 7 10C7 8.34315 8.34315 7 10 7C11.6569 7 13 8.34315 13 10Z" stroke="#6A6D7D" stroke-width="2" stroke-linecap="round" stroke-linejoin="round"/>
</svg>
