<svg width="28" height="29" viewBox="0 0 28 29" fill="none" xmlns="http://www.w3.org/2000/svg">
<g clip-path="url(#clip0_862_529)">
<path fill-rule="evenodd" clip-rule="evenodd" d="M28 14.5C28 22.232 21.732 28.5 14 28.5C6.26801 28.5 0 22.232 0 14.5C0 6.76801 6.26801 0.5 14 0.5C21.732 0.5 28 6.76801 28 14.5ZM14.5018 10.8354C13.1401 11.4018 10.4186 12.5741 6.33735 14.3522C5.67461 14.6158 5.32744 14.8736 5.29584 15.1257C5.24243 15.5517 5.77597 15.7195 6.50253 15.948C6.60136 15.9791 6.70376 16.0113 6.80874 16.0454C7.52355 16.2777 8.48511 16.5496 8.98498 16.5604C9.43841 16.5702 9.94449 16.3832 10.5032 15.9996C14.3165 13.4255 16.2849 12.1244 16.4085 12.0964C16.4957 12.0766 16.6165 12.0517 16.6984 12.1245C16.7802 12.1972 16.7722 12.335 16.7635 12.372C16.7107 12.5973 14.6163 14.5444 13.5324 15.5521C13.1946 15.8662 12.9549 16.089 12.9059 16.1399C12.7961 16.2539 12.6843 16.3617 12.5768 16.4654C11.9127 17.1056 11.4147 17.5856 12.6044 18.3696C13.176 18.7463 13.6335 19.0579 14.0899 19.3686C14.5883 19.7081 15.0855 20.0466 15.7287 20.4683C15.8926 20.5757 16.0491 20.6873 16.2015 20.7959C16.7816 21.2095 17.3027 21.581 17.9465 21.5217C18.3206 21.4873 18.707 21.1355 18.9033 20.0864C19.3671 17.607 20.2787 12.2349 20.4894 10.0211C20.5079 9.82718 20.4846 9.57897 20.466 9.47C20.4473 9.36104 20.4084 9.20579 20.2667 9.09087C20.099 8.95476 19.84 8.92606 19.7242 8.9281C19.1977 8.93737 18.3898 9.21829 14.5018 10.8354Z" fill="#9A9EAE"/>
</g>
<defs>
<clipPath id="clip0_862_529">
<rect width="28" height="28" fill="white" transform="translate(0 0.5)"/>
</clipPath>
</defs>
</svg>
