<svg width="194" height="35" viewBox="0 0 194 35" fill="none" xmlns="http://www.w3.org/2000/svg">
<path d="M125.847 12.605C122.577 10.3258 118.63 9.21195 114.066 9.21195C109.565 9.21195 105.617 10.3277 102.345 12.605C99.075 14.8345 97.4132 17.9381 97.4132 21.9138C97.4132 25.8893 99.075 28.9911 102.345 31.2701C105.615 33.4999 109.565 34.6155 114.066 34.6155C118.63 34.6155 122.577 33.4999 125.847 31.2701C129.18 28.9911 130.841 25.8893 130.841 21.9137C130.841 17.938 129.177 14.8347 125.847 12.605ZM107.9 27.0033C106.176 25.6952 105.308 23.9969 105.308 21.9138C105.308 19.8289 106.169 18.1324 107.9 16.8718C109.625 15.5638 111.664 14.9334 114.063 14.9334C116.465 14.9334 118.565 15.5638 120.292 16.8718C122.077 18.1324 122.945 19.8289 122.945 21.9138C122.945 23.9987 122.084 25.6952 120.291 27.0033C118.567 28.2636 116.468 28.8939 114.063 28.8939C111.664 28.8939 109.63 28.2637 107.9 27.0033ZM142.504 33.9351V0.668335H134.733V33.9351H142.504ZM167.589 9.88939V23.1628C167.589 26.3615 165.389 28.4812 161.202 28.4812C156.945 28.4812 154.804 26.3633 154.804 23.1628V9.88939H147.019V24.1814C147.019 29.7179 151.459 34.6132 161.202 34.6132H161.262C170.945 34.6132 175.378 29.6098 175.378 24.1814V9.88939H167.589ZM89.1405 9.88939L81.3694 26.1783L73.5982 9.88939H65.3336L77.734 33.9354H85.0141L97.4121 9.88939H89.1405ZM65.3737 21.234C65.3737 17.7439 63.9564 14.884 61.18 12.605C58.4031 10.3258 54.8307 9.21195 50.4505 9.21195C45.9494 9.21195 42.1231 10.4248 38.9764 12.7991C35.8904 15.1754 34.3521 18.1799 34.3521 21.9138C34.3521 25.6475 35.8926 28.7016 38.916 31.076C42.0022 33.4522 45.7026 34.6155 50.0804 34.6155C56.8066 34.6155 61.5545 32.2888 64.4474 27.5859L58.6522 24.9678C56.7438 27.9248 53.9649 29.3793 50.2039 29.3793C45.5793 29.3793 42.3094 27.0528 41.8158 23.3684H65.3716V21.234H65.3737ZM50.1992 13.8654C54.5771 13.8654 57.4792 15.8038 58.217 18.9074H41.8113C42.9865 16.0475 46.1892 13.8654 50.1992 13.8654ZM34.3522 33.9355L23.9255 19.5867C30.5213 17.6961 33.7913 14.4002 33.7913 9.60003C33.7984 3.73373 27.8728 0 18.4377 0H0V33.9355H8.14125V20.1675H15.0512L25.0403 33.9355H34.3522ZM18.4377 5.62258C23.2484 5.62258 25.655 7.12489 25.655 10.082C25.655 13.0389 23.2461 14.5412 18.4377 14.5412H8.14125V5.62258H18.4377ZM188.552 34.6134C183.55 34.6134 179.494 31.4237 179.494 27.4865V3.39322H187.264V9.89875H193.927V14.8435H187.264V27.0946C187.264 28.2488 188.454 29.183 189.924 29.183H193.927V34.6134H188.552Z" fill="#CFD5DF"/>
</svg>
