<svg width="40" height="40" viewBox="0 0 40 40" fill="none" xmlns="http://www.w3.org/2000/svg">
<rect width="40" height="40" rx="12" fill="#F4F7FF"/>
<path d="M15.4411 16.0272H24.5575C24.8327 16.0272 25.0237 15.7552 24.9344 15.4933L23.4687 11.2694C23.4116 11.1072 23.2628 11 23.0918 11H16.9044C16.7357 11 16.5845 11.1072 16.5274 11.2694L15.0643 15.4957C14.9751 15.7552 15.1661 16.0272 15.4413 16.0272H15.4411Z" fill="#F3BA2F"/>
<path d="M9.40033 16.0272H14.1892C14.3579 16.0272 14.5091 15.92 14.5662 15.7578L16.0319 11.5339C16.1211 11.2744 15.9302 11 15.6549 11H12.6045C12.4805 11 12.3639 11.0574 12.2871 11.1571L9.08303 15.3834C8.88219 15.6478 9.06815 16.0271 9.40046 16.0271L9.40033 16.0272Z" fill="#F3BA2F"/>
<path d="M25.4352 15.7576C25.4923 15.9198 25.641 16.027 25.8121 16.027H30.601C30.9309 16.027 31.1168 15.6478 30.9185 15.3833L27.7118 11.1596C27.6375 11.0599 27.5184 11.0025 27.3944 11.0025H24.3466C24.0714 11.0025 23.8804 11.2745 23.9697 11.5364L25.4352 15.7576Z" fill="#F3BA2F"/>
<path d="M30.581 16.4166H25.8072C25.6385 16.4166 25.4898 16.5238 25.4327 16.6811L21.4153 27.9628C21.2641 28.392 21.8244 28.7039 22.1046 28.3445L30.8932 17.0627C31.0991 16.8032 30.9131 16.4166 30.5808 16.4166L30.581 16.4166Z" fill="#F3BA2F"/>
<path d="M24.55 16.4166H15.4487C15.1734 16.4166 14.9799 16.691 15.0742 16.9529L19.6248 29.7343C19.7513 30.0886 20.2498 30.0886 20.3736 29.7343L24.9243 16.9529C25.0184 16.691 24.825 16.4166 24.5498 16.4166H24.55Z" fill="#F3BA2F"/>
<path d="M14.5656 16.6834C14.5086 16.5237 14.3598 16.4189 14.1911 16.4189H9.41729C9.08498 16.4189 8.89903 16.8031 9.10487 17.0675L17.8935 28.3493C18.1713 28.7085 18.7342 28.3942 18.5828 27.9676L14.5656 16.6834Z" fill="#F3BA2F"/>
</svg>
