<svg width="20" height="20" viewBox="0 0 20 20" fill="none" xmlns="http://www.w3.org/2000/svg">
<g clip-path="url(#clip0_1507_5536)">
<path d="M10.0002 19.1666C15.0628 19.1666 19.1668 15.0625 19.1668 9.99992C19.1668 4.93731 15.0628 0.833252 10.0002 0.833252C4.93755 0.833252 0.833496 4.93731 0.833496 9.99992C0.833496 15.0625 4.93755 19.1666 10.0002 19.1666Z" fill="#F0F0F0"/>
<path d="M9.60205 10.0002H19.1673C19.1673 9.17285 19.057 8.37133 18.8515 7.60889H9.60205V10.0002Z" fill="#D80027"/>
<path d="M9.60205 5.21749H17.8218C17.2607 4.30183 16.5432 3.49247 15.7067 2.82617H9.60205V5.21749Z" fill="#D80027"/>
<path d="M10.0001 19.1668C12.1574 19.1668 14.1403 18.4212 15.7062 17.1741H4.29395C5.8598 18.4212 7.8427 19.1668 10.0001 19.1668Z" fill="#D80027"/>
<path d="M2.17905 14.7827H17.8215C18.272 14.0476 18.6214 13.2441 18.8512 12.3914H1.14941C1.37919 13.2441 1.72856 14.0476 2.17905 14.7827Z" fill="#D80027"/>
<path d="M5.07967 2.26476H5.91502L5.138 2.82926L5.4348 3.74267L4.65782 3.17816L3.88084 3.74267L4.13722 2.95358C3.45309 3.52345 2.85346 4.19112 2.35932 4.93505H2.62698L2.13237 5.29437C2.05531 5.42292 1.98141 5.55351 1.91058 5.68604L2.14676 6.41296L1.70612 6.09281C1.59659 6.32487 1.4964 6.56217 1.40634 6.8044L1.66655 7.60534H2.62698L1.84996 8.16984L2.14676 9.08325L1.36978 8.51875L0.904359 8.85691C0.857773 9.23139 0.833496 9.61281 0.833496 9.99992H10.0002C10.0002 4.93734 10.0002 4.3405 10.0002 0.833252C8.18932 0.833252 6.50125 1.35854 5.07967 2.26476ZM5.4348 9.08325L4.65782 8.51875L3.88084 9.08325L4.17765 8.16984L3.40063 7.60534H4.36105L4.65782 6.69193L4.95459 7.60534H5.91502L5.138 8.16984L5.4348 9.08325ZM5.138 5.49955L5.4348 6.41296L4.65782 5.84846L3.88084 6.41296L4.17765 5.49955L3.40063 4.93505H4.36105L4.65782 4.02164L4.95459 4.93505H5.91502L5.138 5.49955ZM8.72285 9.08325L7.94586 8.51875L7.16888 9.08325L7.46569 8.16984L6.68867 7.60534H7.64909L7.94586 6.69193L8.24263 7.60534H9.20306L8.42604 8.16984L8.72285 9.08325ZM8.42604 5.49955L8.72285 6.41296L7.94586 5.84846L7.16888 6.41296L7.46569 5.49955L6.68867 4.93505H7.64909L7.94586 4.02164L8.24263 4.93505H9.20306L8.42604 5.49955ZM8.42604 2.82926L8.72285 3.74267L7.94586 3.17816L7.16888 3.74267L7.46569 2.82926L6.68867 2.26476H7.64909L7.94586 1.35135L8.24263 2.26476H9.20306L8.42604 2.82926Z" fill="#0052B4"/>
</g>
<defs>
<clipPath id="clip0_1507_5536">
<rect width="20" height="20" fill="white"/>
</clipPath>
</defs>
</svg>
